<?xml version="1.0" encoding="utf-8"?>
<!-- Generator: Adobe Illustrator 16.0.2, SVG Export Plug-In . SVG Version: 6.00 Build 0)  -->
<!DOCTYPE svg PUBLIC "-//W3C//DTD SVG 1.1//EN" "http://www.w3.org/Graphics/SVG/1.1/DTD/svg11.dtd">
<svg version="1.1" id="圖層_1" xmlns="http://www.w3.org/2000/svg" xmlns:xlink="http://www.w3.org/1999/xlink" x="0px" y="0px"
	 width="189.666px" height="120.75px" viewBox="-74.333 -30.5 189.666 120.75"
	 enable-background="new -74.333 -30.5 189.666 120.75" xml:space="preserve">
<g>
	<path fill="#303438" d="M-46.635,36.258h-3.076v19.228c0,1.31-0.637,1.961-1.912,1.961l-4.809-0.028l-0.372-1.077
		c1.145,0.089,2.83,0.131,5.056,0.131c0.658,0,0.988-0.314,0.988-0.936V36.258h-18.574v-0.974h22.701v0.974H-46.635z
		 M-55.676,51.279h-10.762V41.002h10.762V51.279z M-56.731,50.302v-8.325h-8.656v8.328h8.656V50.302z"/>
	<path fill="#303438" d="M-36.584,34.987c-0.197,0.876-0.568,1.973-1.112,3.299l-0.819,1.881v17.279h-1.057V42.132
		c-0.987,1.719-1.98,3.182-2.973,4.386l-0.656-0.78c2.962-3.866,4.844-7.582,5.659-11.145L-36.584,34.987z M-20.346,38.377h-16.208
		v-0.964h7.464c-0.257-0.633-0.657-1.463-1.205-2.499l0.948-0.395c0.597,0.938,1.057,1.906,1.383,2.894h7.618V38.377z
		 M-21.604,42.159h-13.955v-0.963h13.955V42.159z M-21.604,46.02h-13.955v-0.965h13.955V46.02z M-22.128,57.446h-1.051V55.64h-10.8
		v1.807h-1.051v-8.452h12.901V57.446z M-23.179,54.666V49.97h-10.8v4.696H-23.179z"/>
	<path fill="#303438" d="M-5.661,53.008l-0.677,0.819c-1.36-1.362-2.781-2.532-4.261-3.501v7.144h-1.051v-8.295
		c-1.318,2.633-2.894,4.836-4.735,6.618l-0.706-0.806c2.184-2.188,3.92-4.638,5.22-7.337h-3.665v-6.375h3.887v-3.002h-4.89v-0.975
		h4.89v-2.641h1.051v2.641h4.884v0.975h-4.884v3.002h3.887v6.375h-3.887v1.604C-8.651,50.47-7.003,51.719-5.661,53.008z
		 M-11.649,46.688v-4.453h-2.86v4.453H-11.649z M-7.738,46.688v-4.453h-2.86v4.453H-7.738z M4.546,52.613H-1.62l0.652,0.574
		c-1.377,1.516-3.355,2.97-5.925,4.362l-0.667-0.785c2.419-1.215,4.34-2.599,5.756-4.151h-2.706V42.479h9.056V52.613z M4.867,35.388
		c-0.108,1.698-0.25,2.95-0.42,3.747c-0.173,0.789-0.433,1.289-0.785,1.487c-0.35,0.192-1.037,0.291-2.053,0.291
		c-0.476,0-0.914-0.019-1.309-0.062l-0.241-0.95c0.8,0.059,1.472,0.089,2.009,0.089c0.617,0,1.037-0.159,1.255-0.479
		c0.226-0.32,0.386-1.38,0.49-3.177h-4.283c-0.334,2.227-1.872,3.949-4.617,5.172l-0.681-0.81c2.646-1.008,4.067-2.462,4.272-4.365
		h-3.337v-0.947h9.699V35.388z M3.511,45.521v-2.096h-6.966v2.096H3.511z M3.511,48.598v-2.132h-6.966v2.132H3.511z M3.511,51.679
		v-2.135h-6.966v2.135H3.511z M6.077,56.717l-0.706,0.806c-1.393-1.216-2.964-2.293-4.707-3.234l0.641-0.729
		C3.065,54.52,4.655,55.568,6.077,56.717z"/>
	<path fill="#303438" d="M32.209,52.613h-5.668v2.842c0,0.678-0.168,1.182-0.498,1.517c-0.333,0.336-0.93,0.498-1.795,0.498
		l-2.439-0.023l-0.345-1.002c0.83,0.045,1.63,0.066,2.396,0.066c0.73,0,1.181-0.062,1.358-0.188c0.179-0.123,0.267-0.345,0.267-0.66
		v-3.049H9.404V51.7h16.082v-1.473h1.056V51.7h5.668V52.613z M31.892,37.321H21.388v2.028h8.363v6.914h-1.524
		c1.265,1.134,2.386,2.373,3.361,3.706l-0.826,0.681c-0.425-0.636-0.854-1.174-1.28-1.628c-6.834,0.513-13.292,0.781-19.381,0.804
		L9.86,48.839h0.715c2.575,0,5.827-0.079,9.763-0.241v-2.334h-8.349V39.35h8.349v-2.028H9.756v-0.907h10.582v-1.708h1.051v1.708
		h10.503V37.321z M20.337,42.354V40.25h-7.3v2.104H20.337z M20.337,45.365V43.21h-7.3v2.155H20.337z M18.447,55.922l-0.701,0.795
		c-1.096-0.983-2.349-1.868-3.761-2.658l0.632-0.757C16.054,54.074,17.33,54.942,18.447,55.922z M28.699,42.354V40.25h-7.313v2.104
		H28.699z M28.699,45.365V43.21h-7.313v2.155H28.699z M28.723,48.148c-0.435-0.494-0.875-0.925-1.323-1.279l0.653-0.603h-6.67v2.309
		C23.908,48.519,26.356,48.377,28.723,48.148z"/>
	<path fill="#303438" d="M58.446,50.801H47.651v6.669h-1.055v-6.669H35.814v-0.975h10.782v-2.459h-9.733v-0.953h9.733V44.08H36.313
		v-0.946h7.195c-0.407-0.7-1.053-1.543-1.922-2.526l0.745-0.58h-6.463v-0.936h8.551v-4.386h1.055v4.386h3.307v-4.386h1.05v4.386
		h8.567v0.936h-6.67l0.839,0.617c-0.627,1.078-1.209,1.906-1.759,2.489h7.145v0.946H47.656v2.334h9.747v0.953h-9.747v2.459h10.796
		v0.975H58.446z M44.135,52.702c-2.525,1.888-5.082,3.295-7.666,4.218l-0.652-0.857c2.667-0.941,5.187-2.289,7.555-4.057
		L44.135,52.702z M41.562,37.797l-0.899,0.58c-0.82-1.026-1.743-1.973-2.757-2.834l0.922-0.631
		C39.704,35.684,40.612,36.644,41.562,37.797z M51.562,40.027h-9.078c0.88,1.056,1.581,2.091,2.104,3.106h5.116
		C50.489,42.174,51.111,41.139,51.562,40.027z M58.499,56.316l-0.573,0.82c-2.499-1.639-5.125-3.084-7.875-4.336l0.603-0.795
		C53.473,53.262,56.089,54.703,58.499,56.316z M56.372,35.411c-0.855,1.097-1.807,2.057-2.862,2.885l-0.924-0.522
		c1.058-0.85,2.005-1.784,2.834-2.81L56.372,35.411z"/>
	<path fill="#303438" d="M67.927,48.469c-1.132,3.021-2.904,6.069-5.323,9.145l-0.9-0.642c2.277-2.676,4.059-5.738,5.338-9.183
		L67.927,48.469z M67.397,45.106l-0.675,0.84c-1.601-1.473-3.186-2.678-4.761-3.619l0.666-0.795
		C64.129,42.446,65.715,43.638,67.397,45.106z M68,38.222l-0.702,0.818c-1.366-1.28-2.941-2.489-4.72-3.629l0.602-0.781
		C64.911,35.741,66.515,36.941,68,38.222z M84.922,43.03h-7.954v4.565h6.118v9.851h-1.053V55.64H70.85v1.807h-1.053v-9.851h6.119
		V43.03h-8.016v-1.002h8.016v-4.885c-2.326,0.281-4.612,0.452-6.865,0.498l-0.354-0.974c4.761-0.014,9.599-0.627,14.518-1.831
		l0.449,0.923c-1.88,0.479-4.114,0.898-6.695,1.256v5.013h7.954V43.03z M82.036,54.637v-6.039H70.85v6.039H82.036z"/>
	<path fill="#303438" d="M100.758,39.825h-5.383v2.307h4.809v7.223h-4.809V51.6h4.974v0.913h-4.974v2.858l4.974-0.857v0.857
		c-1.658,0.459-5.675,1.088-12.053,1.873l-0.273-1.028c1.669-0.127,3.777-0.37,6.34-0.73V52.51h-5.055v-0.913h5.055v-2.242h-4.809
		v-7.223h4.809v-2.307h-5.938v-0.922h5.938v-2.261c-1.723,0.159-3.408,0.247-5.055,0.247l-0.306-0.9h0.482
		c3.883,0,7.457-0.395,10.721-1.18l0.526,0.81c-1.587,0.385-3.376,0.69-5.359,0.922v2.362h5.381v0.922H100.758z M94.363,45.29
		v-2.156h-3.784v2.156H94.363z M94.363,48.443v-2.207h-3.784v2.207H94.363z M99.159,45.29v-2.156h-3.783v2.156H99.159z
		 M99.159,48.443v-2.207h-3.783v2.207H99.159z M109.725,40.399c0,4.302-0.061,7.865-0.18,10.685
		c-0.122,2.822-0.259,4.462-0.409,4.913c-0.155,0.452-0.452,0.805-0.885,1.049c-0.438,0.253-1.365,0.372-2.786,0.372l-0.754-0.023
		l-0.348-1.054l2.485,0.049c0.377,0,0.71-0.125,1.008-0.376c0.292-0.252,0.459-0.702,0.502-1.344l0.236-4.961
		c0.122-2.7,0.173-5.474,0.173-8.311h-3.049c-0.128,4.734-0.654,8.226-1.595,10.461c-0.938,2.241-2.245,4.156-3.919,5.748
		l-0.938-0.522c1.601-1.497,2.875-3.313,3.831-5.446c0.95-2.134,1.487-5.552,1.609-10.24h-3.604v-0.999h3.661l0.098-5.693h1.003
		l-0.123,5.693H109.725z"/>
</g>
<g>
	<path fill="#848484" d="M-59.669,70.135c-0.489,0.212-1.014,0.316-1.564,0.316c-0.566,0-1.063-0.128-1.501-0.385
		c-0.435-0.254-0.777-0.623-1.014-1.087c-0.24-0.474-0.361-1.002-0.361-1.598c0-0.638,0.133-1.204,0.386-1.718
		c0.26-0.512,0.625-0.9,1.096-1.184c0.469-0.282,1.002-0.426,1.597-0.426c0.475,0,0.933,0.074,1.361,0.23v0.466
		c-0.438-0.191-0.896-0.287-1.372-0.287c-0.519,0-0.976,0.117-1.373,0.357c-0.397,0.238-0.705,0.581-0.917,1.021
		c-0.215,0.431-0.321,0.937-0.321,1.494c0,0.53,0.099,1.005,0.304,1.422c0.204,0.412,0.496,0.73,0.864,0.954
		c0.375,0.222,0.803,0.335,1.281,0.335c0.57,0,1.082-0.113,1.534-0.335V70.135z"/>
	<path fill="#848484" d="M-56.604,70.451c-0.417,0-0.785-0.092-1.104-0.287c-0.316-0.187-0.563-0.455-0.739-0.799
		c-0.167-0.353-0.253-0.75-0.253-1.202c0-0.469,0.086-0.889,0.256-1.245c0.175-0.353,0.426-0.626,0.754-0.813
		c0.326-0.188,0.702-0.286,1.137-0.286c0.633,0,1.129,0.21,1.492,0.625c0.365,0.413,0.551,0.984,0.551,1.701
		c0,0.453-0.084,0.856-0.255,1.207c-0.173,0.351-0.42,0.629-0.737,0.818C-55.819,70.359-56.185,70.451-56.604,70.451z M-56.572,66.2
		c-0.53,0-0.944,0.17-1.246,0.534c-0.302,0.357-0.455,0.84-0.455,1.438c0,0.578,0.153,1.042,0.455,1.388
		c0.298,0.347,0.708,0.521,1.224,0.521c0.528,0,0.935-0.165,1.224-0.513c0.286-0.347,0.432-0.817,0.432-1.429
		c0-0.629-0.139-1.108-0.425-1.445C-55.646,66.367-56.047,66.2-56.572,66.2z"/>
	<path fill="#848484" d="M-52.996,69.568v2.81h-0.417v-6.447h0.417v0.903h0.016c0.154-0.323,0.374-0.563,0.662-0.747
		c0.289-0.178,0.619-0.269,0.98-0.269c0.556,0,0.993,0.195,1.315,0.582c0.315,0.383,0.475,0.915,0.475,1.577
		c0,0.476-0.084,0.906-0.254,1.285c-0.164,0.388-0.393,0.682-0.697,0.88c-0.302,0.208-0.643,0.309-1.029,0.309
		c-0.654,0-1.144-0.293-1.458-0.883H-52.996L-52.996,69.568z M-52.996,68.48c0,0.291,0.059,0.56,0.186,0.808
		c0.131,0.252,0.313,0.446,0.548,0.58c0.229,0.144,0.484,0.213,0.77,0.213c0.293,0,0.554-0.09,0.782-0.265
		c0.231-0.175,0.412-0.423,0.542-0.755c0.129-0.314,0.189-0.675,0.189-1.072c0-0.549-0.128-0.982-0.38-1.307
		c-0.261-0.321-0.603-0.479-1.031-0.479c-0.324,0-0.602,0.07-0.848,0.216c-0.241,0.15-0.431,0.353-0.56,0.62
		c-0.134,0.267-0.198,0.56-0.198,0.881V68.48z"/>
	<path fill="#848484" d="M-48.657,72.415c-0.134,0-0.253-0.019-0.346-0.055v-0.406c0.114,0.04,0.238,0.052,0.363,0.052
		c0.35,0,0.628-0.238,0.832-0.723l0.41-0.975l-1.673-4.378h0.459l1.327,3.588l0.098,0.322h0.014l0.106-0.304l1.412-3.606h0.445
		l-2.14,5.309c-0.165,0.422-0.354,0.72-0.557,0.898C-48.106,72.323-48.358,72.415-48.657,72.415z"/>
	<path fill="#848484" d="M-42.34,66.361c-0.133-0.091-0.295-0.144-0.472-0.144c-0.362,0-0.66,0.183-0.882,0.554
		c-0.222,0.372-0.336,0.869-0.336,1.487v2.086h-0.406v-4.414h0.406v0.966h0.016c0.099-0.327,0.256-0.59,0.474-0.776
		c0.22-0.188,0.472-0.284,0.759-0.284c0.161,0,0.308,0.034,0.44,0.08V66.361z"/>
	<path fill="#848484" d="M-41.31,64.816c-0.089,0-0.166-0.034-0.237-0.099c-0.066-0.066-0.1-0.144-0.1-0.25
		c0-0.086,0.034-0.162,0.1-0.229c0.064-0.062,0.148-0.092,0.237-0.092c0.087,0,0.169,0.03,0.235,0.086
		c0.073,0.053,0.105,0.14,0.105,0.235c0,0.098-0.032,0.183-0.101,0.248C-41.136,64.783-41.215,64.816-41.31,64.816z M-41.513,70.347
		v-4.416h0.414v4.416H-41.513z"/>
	<path fill="#848484" d="M-36.139,70.015c0,0.827-0.182,1.432-0.542,1.821c-0.36,0.384-0.929,0.579-1.7,0.579
		c-0.432,0-0.873-0.11-1.321-0.339v-0.421c0.468,0.256,0.92,0.394,1.335,0.394c1.208,0,1.812-0.644,1.812-1.924v-0.574h-0.015
		c-0.354,0.604-0.884,0.9-1.585,0.9c-0.37,0-0.69-0.086-0.976-0.265c-0.278-0.179-0.495-0.441-0.646-0.779
		c-0.153-0.339-0.227-0.733-0.227-1.186c0-0.465,0.082-0.877,0.251-1.244c0.171-0.365,0.41-0.656,0.719-0.857
		c0.311-0.199,0.66-0.302,1.057-0.302c0.644,0,1.115,0.269,1.408,0.806h0.02v-0.693h0.415v4.084H-36.139z M-36.555,67.626
		c0-0.256-0.06-0.495-0.183-0.722c-0.118-0.222-0.287-0.391-0.504-0.521c-0.219-0.127-0.46-0.184-0.729-0.184
		c-0.481,0-0.869,0.174-1.166,0.541c-0.293,0.36-0.44,0.848-0.44,1.447c0,0.579,0.134,1.038,0.392,1.38
		c0.263,0.348,0.628,0.513,1.083,0.513c0.459,0,0.831-0.152,1.118-0.454c0.281-0.306,0.428-0.683,0.428-1.134V67.626z"/>
	<path fill="#848484" d="M-31.722,70.347v-2.65c0-0.521-0.095-0.895-0.286-1.134c-0.187-0.247-0.481-0.362-0.885-0.362
		c-0.26,0-0.502,0.061-0.718,0.2c-0.219,0.139-0.389,0.334-0.511,0.587c-0.126,0.251-0.188,0.541-0.188,0.855v2.504h-0.415v-6.538
		h0.415v2.911h0.016c0.354-0.6,0.858-0.901,1.515-0.901c0.481,0,0.848,0.151,1.096,0.455c0.247,0.311,0.368,0.758,0.368,1.329v2.744
		H-31.722z"/>
	<path fill="#848484" d="M-28.219,70.29c-0.202,0.092-0.399,0.148-0.584,0.148c-0.656,0-0.985-0.396-0.985-1.179v-2.953h-0.797
		v-0.375h0.793v-1.146l0.406-0.139v1.283h1.168v0.37h-1.168v2.897c0,0.304,0.049,0.522,0.148,0.657
		c0.093,0.136,0.258,0.208,0.49,0.208c0.165,0,0.341-0.056,0.53-0.162V70.29z"/>
	<path fill="#848484" d="M-21.732,70.457c-0.583,0-1.116-0.144-1.611-0.424c-0.501-0.284-0.893-0.678-1.18-1.167
		c-0.289-0.485-0.437-1.023-0.437-1.603c0-0.569,0.148-1.11,0.44-1.604c0.288-0.498,0.679-0.89,1.176-1.17
		c0.489-0.291,1.028-0.435,1.606-0.435c0.565,0,1.097,0.144,1.604,0.435c0.495,0.283,0.894,0.672,1.184,1.16
		c0.294,0.492,0.44,1.026,0.44,1.607c0,0.556-0.146,1.09-0.429,1.588c-0.283,0.489-0.675,0.889-1.175,1.177
		C-20.614,70.309-21.151,70.457-21.732,70.457z M-21.736,70.125c0.513,0,0.995-0.134,1.445-0.391
		c0.449-0.257,0.795-0.611,1.06-1.056c0.249-0.445,0.38-0.916,0.38-1.422c0-0.508-0.134-0.983-0.392-1.439
		c-0.263-0.451-0.617-0.8-1.063-1.054c-0.438-0.257-0.918-0.387-1.43-0.387c-0.508,0-0.988,0.137-1.436,0.396
		c-0.445,0.264-0.793,0.615-1.049,1.061c-0.258,0.445-0.389,0.919-0.389,1.424c0,0.52,0.137,1.002,0.396,1.453
		c0.266,0.443,0.622,0.782,1.062,1.046C-22.715,70-22.244,70.125-21.736,70.125z M-20.52,69.184
		c-0.351,0.205-0.718,0.306-1.08,0.306c-0.381,0-0.742-0.093-1.069-0.277c-0.337-0.184-0.594-0.44-0.783-0.767
		c-0.193-0.33-0.291-0.683-0.291-1.075c0-0.438,0.095-0.834,0.274-1.184c0.184-0.351,0.445-0.626,0.776-0.821
		c0.337-0.2,0.726-0.299,1.159-0.299c0.375,0,0.705,0.08,0.997,0.232v0.384c-0.296-0.17-0.653-0.254-1.061-0.254
		c-0.323,0-0.621,0.081-0.888,0.235c-0.269,0.16-0.475,0.386-0.629,0.668c-0.148,0.273-0.222,0.586-0.222,0.942
		c0,0.343,0.074,0.653,0.226,0.936c0.154,0.283,0.368,0.506,0.64,0.663c0.269,0.161,0.562,0.246,0.889,0.246
		c0.351,0,0.704-0.118,1.062-0.335V69.184z"/>
	<path fill="#848484" d="M-15,70.055c0-0.29,0.038-0.536,0.106-0.733c0.072-0.21,0.176-0.397,0.321-0.572
		c0.142-0.174,0.324-0.348,0.539-0.516c0.22-0.162,0.473-0.357,0.766-0.57c0.392-0.281,0.67-0.513,0.835-0.693
		c0.166-0.177,0.288-0.369,0.373-0.577c0.084-0.196,0.128-0.425,0.128-0.679c0-0.394-0.115-0.709-0.335-0.941
		c-0.225-0.225-0.538-0.339-0.951-0.339c-0.516,0-1.031,0.226-1.544,0.688v-0.479c0.497-0.391,1.034-0.588,1.616-0.588
		c0.494,0,0.896,0.145,1.193,0.44c0.298,0.291,0.451,0.678,0.451,1.164c0,0.296-0.049,0.564-0.148,0.807
		c-0.096,0.235-0.236,0.46-0.415,0.669c-0.18,0.21-0.506,0.479-0.979,0.821c-0.462,0.324-0.795,0.583-0.99,0.767
		c-0.188,0.184-0.326,0.372-0.407,0.559c-0.077,0.177-0.123,0.392-0.123,0.626v0.07h3.079v0.369H-15V70.055z"/>
	<path fill="#848484" d="M-8.627,70.451c-0.58,0-1.034-0.26-1.351-0.801c-0.324-0.527-0.481-1.282-0.481-2.266
		c0-1.106,0.169-1.936,0.51-2.49c0.34-0.561,0.828-0.84,1.458-0.84c1.194,0,1.791,1.057,1.791,3.172c0,1.04-0.165,1.835-0.5,2.388
		C-7.535,70.173-8.014,70.451-8.627,70.451z M-8.527,64.434c-0.472,0-0.84,0.242-1.104,0.719c-0.264,0.491-0.396,1.215-0.396,2.185
		c0,0.863,0.127,1.547,0.372,2.028c0.25,0.476,0.609,0.716,1.077,0.716c0.459,0,0.82-0.25,1.063-0.732
		c0.253-0.489,0.38-1.176,0.38-2.065C-7.135,65.381-7.599,64.434-8.527,64.434z"/>
	<path fill="#848484" d="M-5.878,70.055c0-0.29,0.04-0.536,0.107-0.733c0.073-0.21,0.176-0.397,0.324-0.572
		c0.147-0.174,0.326-0.348,0.543-0.516c0.211-0.162,0.466-0.357,0.759-0.57c0.397-0.281,0.669-0.513,0.838-0.693
		c0.164-0.177,0.292-0.369,0.369-0.577c0.084-0.196,0.129-0.425,0.129-0.679c0-0.394-0.108-0.709-0.335-0.941
		c-0.225-0.225-0.542-0.339-0.952-0.339c-0.511,0-1.031,0.226-1.544,0.688v-0.479c0.494-0.391,1.033-0.588,1.616-0.588
		c0.495,0,0.897,0.145,1.193,0.44c0.302,0.291,0.449,0.678,0.449,1.164c0,0.296-0.049,0.564-0.143,0.807
		c-0.098,0.235-0.242,0.46-0.42,0.669c-0.179,0.21-0.507,0.479-0.977,0.821c-0.467,0.324-0.798,0.583-0.987,0.767
		c-0.192,0.184-0.33,0.372-0.409,0.559c-0.081,0.177-0.123,0.392-0.123,0.626v0.07h3.075v0.369h-3.517v-0.292H-5.878z"/>
	<path fill="#848484" d="M0.136,70.347v-5.684c-0.37,0.352-0.875,0.633-1.512,0.853v-0.369c0.325-0.11,0.625-0.252,0.893-0.422
		c0.271-0.172,0.565-0.404,0.887-0.7h0.142v6.322H0.136z"/>
	<path fill="#848484" d="M8.766,70.135c-0.493,0.212-1.015,0.316-1.571,0.316c-0.561,0-1.062-0.128-1.497-0.385
		c-0.436-0.254-0.773-0.623-1.017-1.087c-0.238-0.474-0.354-1.002-0.354-1.598c0-0.638,0.128-1.204,0.387-1.718
		c0.256-0.512,0.621-0.9,1.088-1.184c0.472-0.282,1.001-0.426,1.596-0.426c0.48,0,0.935,0.074,1.368,0.23v0.466
		c-0.441-0.191-0.897-0.287-1.374-0.287c-0.52,0-0.979,0.117-1.37,0.357c-0.397,0.238-0.704,0.581-0.919,1.021
		c-0.217,0.431-0.324,0.937-0.324,1.494c0,0.53,0.103,1.005,0.306,1.422c0.202,0.412,0.489,0.73,0.869,0.954
		c0.373,0.222,0.796,0.335,1.278,0.335c0.569,0,1.079-0.113,1.534-0.335V70.135z"/>
	<path fill="#848484" d="M11.827,64.565v5.781h-0.435v-5.781H9.603v-0.408h4.006v0.408H11.827z"/>
	<path fill="#848484" d="M18.627,70.347v-2.962h-3.523v2.962h-0.445v-6.189h0.445v2.83h3.523v-2.83h0.439v6.189H18.627z"/>
	<path fill="#848484" d="M23.079,70.347v-6.189h2.9v0.408h-2.46v2.452h2.279v0.41h-2.279v2.52h2.597v0.399H23.079z"/>
	<path fill="#848484" d="M31.857,70.347l-3.658-4.999c-0.105-0.147-0.189-0.272-0.254-0.388H27.93l0.01,0.306v5.081h-0.444v-6.189
		h0.352l3.635,4.959l0.265,0.395h0.019c-0.014-0.204-0.026-0.383-0.026-0.541v-4.813h0.443v6.189H31.857L31.857,70.347z"/>
	<path fill="#848484" d="M35.46,64.565v5.781h-0.436v-5.781h-1.782v-0.408h4.004v0.408H35.46z"/>
	<path fill="#848484" d="M43.265,70.347v-0.878h-0.018c-0.146,0.313-0.353,0.549-0.619,0.726c-0.27,0.174-0.562,0.257-0.879,0.257
		c-0.414,0-0.745-0.113-0.997-0.349c-0.25-0.234-0.371-0.527-0.371-0.901c0-0.777,0.506-1.245,1.526-1.396l1.359-0.207
		c0-0.935-0.35-1.398-1.061-1.398c-0.483,0-0.96,0.191-1.42,0.579v-0.494c0.184-0.144,0.414-0.257,0.675-0.342
		c0.263-0.082,0.525-0.126,0.783-0.126c0.467,0,0.82,0.145,1.066,0.423c0.248,0.283,0.372,0.692,0.372,1.227v2.88H43.265z
		 M40.815,69.189c0,0.266,0.083,0.477,0.263,0.645c0.177,0.162,0.421,0.247,0.718,0.247c0.267,0,0.519-0.069,0.749-0.213
		c0.224-0.147,0.4-0.345,0.527-0.605c0.128-0.25,0.193-0.54,0.193-0.853v-0.429l-1.208,0.164c-0.455,0.067-0.774,0.18-0.962,0.338
		C40.91,68.647,40.815,68.876,40.815,69.189z"/>
	<path fill="#848484" d="M45.002,70.347v-6.538h0.416v6.538H45.002z"/>
	<path fill="#848484" d="M46.828,70.347v-6.538h0.416v6.538H46.828z"/>
	<path fill="#848484" d="M53.18,66.361c-0.134-0.091-0.289-0.144-0.468-0.144c-0.366,0-0.66,0.183-0.882,0.554
		c-0.227,0.372-0.335,0.869-0.335,1.487v2.086h-0.412v-4.414h0.412v0.966h0.016c0.098-0.327,0.252-0.59,0.475-0.776
		c0.215-0.188,0.464-0.284,0.755-0.284c0.166,0,0.313,0.034,0.441,0.08v0.445H53.18z"/>
	<path fill="#848484" d="M54.214,64.816c-0.09,0-0.166-0.034-0.237-0.099c-0.064-0.066-0.098-0.144-0.098-0.25
		c0-0.086,0.034-0.162,0.098-0.229c0.064-0.062,0.142-0.092,0.237-0.092c0.089,0,0.169,0.03,0.236,0.086
		c0.067,0.053,0.103,0.14,0.103,0.235c0,0.098-0.038,0.183-0.103,0.248C54.386,64.783,54.303,64.816,54.214,64.816z M54.01,70.347
		v-4.416h0.416v4.416H54.01z"/>
	<path fill="#848484" d="M59.383,70.015c0,0.827-0.18,1.432-0.547,1.821c-0.355,0.384-0.922,0.579-1.695,0.579
		c-0.434,0-0.871-0.11-1.318-0.339v-0.421c0.469,0.256,0.914,0.394,1.331,0.394c1.207,0,1.813-0.644,1.813-1.924v-0.574h-0.015
		c-0.352,0.604-0.89,0.9-1.59,0.9c-0.362,0-0.689-0.086-0.966-0.265c-0.285-0.179-0.498-0.441-0.651-0.779
		c-0.153-0.339-0.231-0.733-0.231-1.186c0-0.465,0.085-0.877,0.255-1.244c0.169-0.365,0.408-0.656,0.719-0.857
		c0.307-0.199,0.66-0.302,1.053-0.302c0.647,0,1.115,0.269,1.412,0.806h0.015v-0.693h0.417V70.015z M58.969,67.626
		c0-0.256-0.056-0.495-0.182-0.722c-0.117-0.222-0.284-0.391-0.504-0.521c-0.222-0.127-0.46-0.184-0.729-0.184
		c-0.481,0-0.872,0.174-1.161,0.541c-0.293,0.365-0.441,0.845-0.441,1.443c0,0.583,0.126,1.037,0.39,1.384
		c0.26,0.339,0.624,0.51,1.084,0.51c0.457,0,0.83-0.149,1.116-0.457c0.284-0.3,0.427-0.677,0.427-1.128V67.626z"/>
	<path fill="#848484" d="M63.802,70.347v-2.65c0-0.521-0.096-0.895-0.282-1.134c-0.189-0.247-0.487-0.362-0.888-0.362
		c-0.259,0-0.499,0.061-0.718,0.2c-0.218,0.139-0.385,0.334-0.513,0.587c-0.125,0.251-0.183,0.541-0.183,0.855v2.504h-0.42v-6.538
		h0.42v2.911h0.014c0.352-0.6,0.854-0.901,1.513-0.901c0.479,0,0.846,0.151,1.091,0.455c0.25,0.311,0.373,0.758,0.373,1.329v2.744
		H63.802z"/>
	<path fill="#848484" d="M67.305,70.29c-0.207,0.092-0.4,0.148-0.589,0.148c-0.659,0-0.988-0.396-0.988-1.179v-2.953h-0.792v-0.375
		h0.792v-1.146l0.411-0.139v1.283h1.166v0.37h-1.166v2.897c0,0.304,0.047,0.522,0.143,0.657c0.092,0.136,0.264,0.208,0.494,0.208
		c0.162,0,0.344-0.056,0.531-0.162v0.389H67.305z"/>
	<path fill="#848484" d="M67.951,69.66c0.147,0.125,0.327,0.226,0.539,0.299c0.218,0.082,0.402,0.122,0.56,0.122
		c0.689,0,1.031-0.277,1.031-0.836c0-0.19-0.066-0.354-0.203-0.485c-0.139-0.131-0.391-0.279-0.765-0.439
		c-0.41-0.176-0.703-0.364-0.882-0.558c-0.18-0.2-0.27-0.439-0.27-0.731c0-0.355,0.143-0.649,0.415-0.874
		c0.278-0.223,0.625-0.339,1.028-0.339c0.375,0,0.701,0.085,0.979,0.234v0.461c-0.333-0.213-0.671-0.313-1.02-0.313
		c-0.284,0-0.515,0.07-0.698,0.214c-0.18,0.155-0.269,0.349-0.269,0.592c0,0.159,0.022,0.291,0.077,0.385
		c0.055,0.099,0.152,0.189,0.27,0.272c0.129,0.083,0.318,0.18,0.563,0.293c0.321,0.141,0.564,0.272,0.741,0.394
		c0.172,0.126,0.294,0.248,0.36,0.383c0.067,0.137,0.107,0.302,0.107,0.499c0,0.359-0.139,0.661-0.41,0.885
		c-0.275,0.229-0.637,0.335-1.087,0.335c-0.425,0-0.78-0.101-1.067-0.305L67.951,69.66L67.951,69.66z"/>
	<path fill="#848484" d="M76.149,66.361c-0.135-0.091-0.293-0.144-0.471-0.144c-0.37,0-0.662,0.183-0.885,0.554
		c-0.227,0.372-0.335,0.869-0.335,1.487v2.086h-0.407v-4.414h0.407v0.966h0.015c0.099-0.327,0.26-0.59,0.475-0.776
		c0.219-0.188,0.475-0.284,0.76-0.284c0.158,0,0.307,0.034,0.441,0.08V66.361z"/>
	<path fill="#848484" d="M76.969,68.163c0,0.597,0.139,1.073,0.415,1.405c0.278,0.348,0.662,0.513,1.148,0.513
		c0.499,0,0.981-0.18,1.454-0.544v0.434c-0.456,0.322-0.971,0.48-1.533,0.48c-0.596,0-1.059-0.213-1.396-0.629
		c-0.347-0.426-0.523-0.99-0.523-1.708c0-0.418,0.086-0.803,0.258-1.158c0.168-0.354,0.404-0.635,0.707-0.836
		c0.303-0.204,0.643-0.303,1.025-0.303c0.541,0,0.957,0.19,1.261,0.566c0.298,0.379,0.449,0.909,0.449,1.594v0.183h-3.265V68.163z
		 M79.809,67.788c-0.02-0.505-0.145-0.896-0.369-1.176c-0.226-0.278-0.541-0.412-0.932-0.412c-0.414,0-0.76,0.134-1.023,0.412
		c-0.268,0.28-0.436,0.671-0.496,1.176H79.809z"/>
	<path fill="#848484" d="M81.1,69.66c0.146,0.125,0.324,0.226,0.54,0.299c0.217,0.082,0.399,0.122,0.562,0.122
		c0.69,0,1.033-0.277,1.033-0.836c0-0.19-0.071-0.354-0.207-0.485s-0.393-0.279-0.764-0.439c-0.414-0.176-0.703-0.364-0.885-0.558
		c-0.18-0.2-0.266-0.439-0.266-0.731c0-0.355,0.141-0.649,0.416-0.874c0.276-0.223,0.621-0.339,1.033-0.339
		c0.373,0,0.69,0.085,0.973,0.234v0.461c-0.332-0.213-0.671-0.313-1.023-0.313c-0.279,0-0.516,0.07-0.697,0.214
		c-0.178,0.155-0.273,0.349-0.273,0.592c0,0.159,0.031,0.291,0.088,0.385c0.048,0.099,0.144,0.189,0.266,0.272
		c0.128,0.083,0.314,0.18,0.561,0.293c0.322,0.141,0.567,0.272,0.742,0.394c0.17,0.126,0.293,0.248,0.359,0.383
		c0.071,0.137,0.106,0.302,0.106,0.499c0,0.359-0.135,0.661-0.41,0.885c-0.273,0.229-0.63,0.335-1.079,0.335
		c-0.431,0-0.784-0.101-1.074-0.305V69.66L81.1,69.66z"/>
	<path fill="#848484" d="M84.888,68.163c0,0.597,0.138,1.073,0.415,1.405c0.271,0.348,0.659,0.513,1.151,0.513
		c0.497,0,0.977-0.18,1.451-0.544v0.434c-0.461,0.322-0.976,0.48-1.536,0.48c-0.591,0-1.061-0.213-1.401-0.629
		c-0.34-0.426-0.511-0.99-0.511-1.708c0-0.418,0.08-0.803,0.252-1.158c0.171-0.354,0.405-0.635,0.708-0.836
		c0.301-0.204,0.646-0.303,1.023-0.303c0.542,0,0.96,0.19,1.258,0.566c0.302,0.379,0.454,0.909,0.454,1.594v0.183h-3.265V68.163z
		 M87.725,67.788c-0.019-0.505-0.144-0.896-0.367-1.176c-0.229-0.278-0.538-0.412-0.929-0.412c-0.424,0-0.762,0.134-1.027,0.412
		c-0.269,0.28-0.437,0.671-0.495,1.176H87.725z"/>
	<path fill="#848484" d="M91.343,66.361c-0.136-0.091-0.29-0.144-0.474-0.144c-0.364,0-0.66,0.183-0.881,0.554
		c-0.225,0.372-0.336,0.869-0.336,1.487v2.086h-0.407v-4.414h0.407v0.966h0.013c0.099-0.327,0.259-0.59,0.478-0.776
		c0.217-0.188,0.471-0.284,0.758-0.284c0.158,0,0.307,0.034,0.442,0.08V66.361z"/>
	<path fill="#848484" d="M93.987,70.347h-0.384l-1.7-4.416h0.458l1.303,3.498c0.066,0.173,0.109,0.329,0.139,0.469h0.013
		c0.044-0.177,0.085-0.329,0.133-0.454l1.346-3.513h0.452L93.987,70.347z"/>
	<path fill="#848484" d="M96.596,68.163c0,0.597,0.141,1.073,0.414,1.405c0.282,0.348,0.662,0.513,1.154,0.513
		c0.495,0,0.98-0.18,1.448-0.544v0.434c-0.454,0.322-0.965,0.48-1.533,0.48c-0.591,0-1.059-0.213-1.398-0.629
		c-0.346-0.426-0.516-0.99-0.516-1.708c0-0.418,0.087-0.803,0.255-1.158c0.169-0.351,0.406-0.635,0.707-0.836
		c0.303-0.204,0.646-0.303,1.023-0.303c0.542,0,0.958,0.19,1.26,0.566c0.298,0.379,0.449,0.909,0.449,1.594v0.183h-3.264V68.163z
		 M99.432,67.788c-0.019-0.505-0.14-0.896-0.361-1.176c-0.23-0.278-0.544-0.412-0.936-0.412c-0.412,0-0.761,0.134-1.025,0.412
		c-0.269,0.28-0.432,0.671-0.495,1.176H99.432z"/>
	<path fill="#848484" d="M104.087,70.347V69.55h-0.018c-0.155,0.291-0.368,0.51-0.654,0.663c-0.285,0.162-0.602,0.238-0.932,0.238
		c-0.557,0-1.005-0.198-1.34-0.604c-0.342-0.404-0.506-0.957-0.506-1.635c0-0.467,0.081-0.876,0.254-1.247
		c0.17-0.36,0.411-0.645,0.72-0.846c0.309-0.204,0.659-0.303,1.046-0.303c0.661,0,1.134,0.27,1.412,0.813h0.018v-2.823h0.413v6.537
		h-0.413V70.347z M104.087,67.663c0-0.431-0.134-0.78-0.399-1.054c-0.269-0.275-0.608-0.409-1.034-0.409
		c-0.465,0-0.857,0.174-1.148,0.541c-0.292,0.365-0.44,0.845-0.44,1.443c0,0.575,0.13,1.042,0.393,1.384
		c0.257,0.348,0.614,0.513,1.059,0.513c0.477,0,0.861-0.152,1.148-0.452c0.281-0.295,0.423-0.685,0.423-1.153V67.663z"/>
</g>
<g>
	<g>
		<path fill="#198E8C" d="M20.125,22.26c0,0.473-0.021,0.873-0.061,1.194c-0.042,0.32-0.101,0.581-0.186,0.779
			c-0.084,0.198-0.186,0.342-0.308,0.431c-0.125,0.094-0.259,0.137-0.407,0.137H3.102c-0.545,0-1-0.158-1.372-0.479
			c-0.37-0.321-0.556-0.844-0.556-1.567V-5.121c0-0.724,0.186-1.251,0.556-1.572C2.103-7.012,2.559-7.17,3.102-7.17h15.962
			c0.148,0,0.278,0.042,0.396,0.122c0.116,0.085,0.214,0.224,0.296,0.431c0.081,0.208,0.144,0.471,0.184,0.791
			C19.982-5.506,20-5.097,20-4.603c0,0.461-0.021,0.855-0.061,1.172c-0.042,0.32-0.103,0.584-0.184,0.781
			c-0.083,0.198-0.181,0.339-0.296,0.429c-0.118,0.094-0.249,0.136-0.396,0.136H7.648v7.809h9.661c0.15,0,0.284,0.046,0.407,0.137
			c0.122,0.093,0.226,0.232,0.308,0.42c0.083,0.191,0.146,0.448,0.186,0.766c0.042,0.32,0.062,0.715,0.062,1.177
			c0,0.476-0.021,0.873-0.062,1.188c-0.042,0.312-0.104,0.563-0.186,0.757c-0.083,0.188-0.186,0.324-0.308,0.404
			c-0.125,0.085-0.259,0.127-0.407,0.127H7.648v9.018h11.515c0.148,0,0.283,0.046,0.407,0.137c0.125,0.089,0.226,0.235,0.308,0.432
			c0.082,0.198,0.144,0.457,0.186,0.777C20.104,21.381,20.125,21.777,20.125,22.26z"/>
		<path fill="#198E8C" d="M47.748,2.537c0,1.797-0.278,3.385-0.84,4.77c-0.562,1.386-1.375,2.553-2.448,3.499
			c-1.068,0.951-2.381,1.671-3.941,2.166c-1.555,0.494-3.386,0.738-5.495,0.738h-2.668v10.203c0,0.163-0.054,0.316-0.16,0.448
			c-0.108,0.131-0.282,0.238-0.532,0.32c-0.247,0.083-0.576,0.149-0.988,0.196c-0.412,0.052-0.939,0.076-1.579,0.076
			c-0.628,0-1.15-0.024-1.569-0.076c-0.419-0.047-0.755-0.113-1-0.196c-0.249-0.082-0.418-0.189-0.518-0.32
			c-0.098-0.132-0.15-0.283-0.15-0.448V-4.852c0-0.771,0.2-1.351,0.605-1.741c0.402-0.386,0.937-0.579,1.593-0.579h7.535
			c0.758,0,1.478,0.028,2.163,0.084c0.685,0.06,1.503,0.184,2.459,0.373c0.956,0.185,1.922,0.541,2.904,1.049
			c0.979,0.513,1.816,1.158,2.508,1.939c0.692,0.786,1.219,1.699,1.582,2.744C47.568,0.063,47.748,1.237,47.748,2.537z
			 M40.956,3.008c0-1.12-0.197-2.043-0.593-2.768c-0.396-0.72-0.883-1.259-1.459-1.604c-0.574-0.349-1.184-0.563-1.814-0.656
			c-0.635-0.09-1.289-0.133-1.962-0.133H32.36V8.69h2.916c1.038,0,1.906-0.139,2.607-0.42c0.699-0.277,1.273-0.666,1.715-1.17
			c0.445-0.504,0.784-1.107,1.012-1.808C40.841,4.594,40.956,3.831,40.956,3.008z"/>
		<path fill="#198E8C" d="M75.547,22.379c0.198,0.593,0.322,1.063,0.369,1.408c0.051,0.348-0.016,0.607-0.196,0.775
			c-0.181,0.175-0.503,0.283-0.962,0.324c-0.461,0.039-1.099,0.062-1.904,0.062c-0.84,0-1.492-0.014-1.963-0.037
			c-0.471-0.025-0.828-0.076-1.073-0.153c-0.249-0.07-0.421-0.174-0.521-0.306c-0.098-0.134-0.181-0.308-0.249-0.52l-2.15-6.425
			H54.892l-2.028,6.252c-0.064,0.231-0.151,0.424-0.256,0.577c-0.108,0.161-0.28,0.283-0.518,0.372
			c-0.243,0.089-0.579,0.153-1.014,0.184c-0.438,0.033-1.012,0.052-1.718,0.052c-0.756,0-1.351-0.024-1.776-0.076
			c-0.431-0.046-0.728-0.168-0.89-0.357c-0.165-0.188-0.223-0.454-0.174-0.804c0.052-0.345,0.174-0.806,0.372-1.384l9.857-28.366
			c0.099-0.277,0.215-0.503,0.346-0.677c0.134-0.174,0.344-0.306,0.633-0.396c0.287-0.089,0.687-0.151,1.198-0.174
			c0.511-0.02,1.184-0.038,2.026-0.038c0.97,0,1.746,0.014,2.322,0.038c0.577,0.026,1.024,0.084,1.349,0.174
			c0.322,0.089,0.553,0.226,0.691,0.41c0.139,0.176,0.26,0.428,0.357,0.739L75.547,22.379z M60.869-1.068h-0.022L56.322,12.52h9.07
			L60.869-1.068z"/>
	</g>
	<path fill-rule="evenodd" clip-rule="evenodd" fill="#198E8C" d="M-31.353,21.76c5.645,0,11.213,0,16.86,0
		c0.045-0.541,0.087-1.067,0.125-1.538c1.346,0,2.633,0,4.165,0c-0.075,1.519-0.047,2.974-0.256,4.396
		c-0.136,0.932-0.941,1.424-1.892,1.427c-7.045,0.013-14.093,0.016-21.143-0.003c-1.081-0.003-1.852-0.748-2.008-1.83
		c-0.054-0.37-0.037-0.754-0.037-1.129c0-9.543,0-19.091,0-28.635c0-2.233,0.645-2.878,2.866-2.878
		c6.568-0.002,13.138-0.004,19.706,0c1.901,0,2.691,0.765,2.708,2.652c0.017,1.807,0.003,3.615,0.003,5.504
		c-1.405,0-2.715,0-4.154,0c0-1.209,0-2.522,0-3.89c-5.716,0-11.307,0-16.943,0C-31.353,4.48-31.353,13.054-31.353,21.76z"/>
	<path fill-rule="evenodd" clip-rule="evenodd" fill="#198E8C" d="M-20.606,10.046c0.021-4.771,3.755-8.547,8.485-8.58
		c4.747-0.033,8.667,3.934,8.608,8.71c-0.059,4.72-3.88,8.522-8.583,8.535C-16.813,18.723-20.627,14.842-20.606,10.046z
		 M-13.193,10.138c-0.398-0.511-0.68-0.894-0.983-1.259c-0.501-0.596-1.012-0.617-1.535-0.012c-0.179,0.204-0.376,0.396-0.579,0.579
		c-0.537,0.482-0.567,0.957-0.04,1.479c0.85,0.839,1.688,1.69,2.518,2.541c0.44,0.455,0.868,0.492,1.32,0.036
		c1.586-1.595,3.196-3.173,4.734-4.813c0.196-0.206,0.125-0.78,0.005-1.125C-7.854,7.274-8.214,7.08-8.438,6.824
		c-0.513-0.591-0.979-0.606-1.53-0.011C-10.939,7.862-11.956,8.867-13.193,10.138z"/>
	<path fill-rule="evenodd" clip-rule="evenodd" fill="#198E8C" d="M-26.739,19.054c-0.821,0-1.642-0.025-2.461,0.011
		c-0.603,0.027-0.88-0.165-0.871-0.806c0.026-1.641,0.016-3.283,0.007-4.925c-0.005-0.554,0.208-0.803,0.791-0.796
		c1.708,0.021,3.419,0.021,5.13-0.003c0.567-0.007,0.807,0.194,0.8,0.77c-0.019,1.643-0.023,3.283,0,4.926
		c0.007,0.609-0.197,0.864-0.831,0.834C-25.027,19.023-25.884,19.054-26.739,19.054z"/>
	<path fill-rule="evenodd" clip-rule="evenodd" fill="#198E8C" d="M-22.811-1.614c2.014,0,4.031,0.01,6.046-0.002
		c0.576-0.005,0.998,0.078,1.011,0.807c0.015,0.724-0.359,0.838-0.964,0.838c-4.13-0.014-8.265-0.014-12.397,0
		c-0.602,0.002-0.972-0.114-0.955-0.841c0.016-0.733,0.438-0.809,1.012-0.807C-26.976-1.606-24.893-1.614-22.811-1.614z"/>
	<path fill-rule="evenodd" clip-rule="evenodd" fill="#198E8C" d="M-18.681,1.884c-0.802,1.223-1.671,1.695-3.003,1.625
		c-2.456-0.125-4.925-0.042-7.389-0.027c-0.574,0.004-0.998-0.033-1-0.791c-0.002-0.748,0.418-0.813,0.993-0.813
		C-25.67,1.888-22.26,1.884-18.681,1.884z"/>
	<path fill-rule="evenodd" clip-rule="evenodd" fill="#198E8C" d="M-21.437,5.349c-0.292,1.578-0.292,1.578-1.72,1.575
		c-2.01,0-4.019-0.015-6.026,0.009c-0.593,0.01-0.882-0.159-0.885-0.797c-0.002-0.644,0.294-0.801,0.883-0.797
		C-26.609,5.36-24.03,5.349-21.437,5.349z"/>
	<path fill-rule="evenodd" clip-rule="evenodd" fill="#198E8C" d="M-22.406,8.806c0.144,1.616,0.144,1.619-1.233,1.619
		c-1.771,0-3.544,0.003-5.318,0c-0.558-0.003-1.102,0.036-1.115-0.805c-0.014-0.83,0.478-0.823,1.068-0.818
		C-26.828,8.813-24.651,8.806-22.406,8.806z"/>
	<path fill-rule="evenodd" clip-rule="evenodd" fill="#FFFFFF" stroke="#198E8C" stroke-miterlimit="10" d="M-13.193,10.138
		c1.238-1.271,2.254-2.275,3.226-3.324c0.551-0.596,1.017-0.58,1.53,0.011c0.223,0.256,0.583,0.45,0.685,0.741
		c0.12,0.345,0.191,0.919-0.005,1.125c-1.538,1.64-3.148,3.218-4.734,4.813c-0.452,0.456-0.88,0.419-1.32-0.036
		c-0.831-0.851-1.668-1.702-2.518-2.541c-0.527-0.522-0.497-0.997,0.04-1.479c0.202-0.184,0.4-0.375,0.579-0.579
		c0.522-0.605,1.034-0.584,1.535,0.012C-13.874,9.244-13.591,9.627-13.193,10.138z"/>
</g>
</svg>
