<svg xmlns="http://www.w3.org/2000/svg" width="378" height="74.011" viewBox="0 0 378 74.011">
  <g id="组_1300" data-name="组 1300" transform="translate(-67 -37)">
    <g id="组_851" data-name="组 851" transform="translate(0 12)">
      <text id="台灣耳鼻喉頭頸外科醫學會" transform="translate(145 63)" fill="#026873" font-size="25" font-family="SourceHanSansTWHK-Medium, Source Han Sans TWHK" font-weight="500"><tspan x="0" y="0">台灣耳鼻喉頭頸外科醫學會</tspan></text>
      <text id="Taiwan_Society_of_Otorhinolaryngology_Head_and_Neck_Surgery" data-name="Taiwan Society of Otorhinolaryngology Head and Neck Surgery" transform="translate(148 78)" fill="#3f464d" font-size="10.9" font-family="Catamaran-SemiBold, Catamaran" font-weight="600"><tspan x="0" y="0">Taiwan Society of Otorhinolaryngology Head and Neck Surgery</tspan></text>
    </g>
    <g id="组_850" data-name="组 850" transform="translate(-90.883 -213.018)">
      <path id="路径_1123" data-name="路径 1123" d="M157.928,375.825s4.006,4.461,7.1,5.826a36.469,36.469,0,0,1,5.553-1.183,157.728,157.728,0,0,1,16.751-.91s-1.952-1.618-2.64-6.327a43.335,43.335,0,0,1-.364-8.421s-10.469.546-17.752,3S157.564,374.187,157.928,375.825Z" transform="translate(0 -87.209)" fill="#302d2c"/>
      <g id="组_846" data-name="组 846" transform="translate(164.489 250.018)">
        <path id="路径_1124" data-name="路径 1124" d="M217.309,280.651c.03-.078,4.662-11.414,4.958-12.03a55.319,55.319,0,0,0,1.359-5.988c-.346-1.82.51-3.184,1.223-5.074,1.024-2.712-4.867-9.452-9.156-7.022-.881.5-1.6,1.228-2.584,1.173-1.253-.223-13.065,10.855-13.206,11.4a7.53,7.53,0,0,1-2.122,3.185c-.717.8-4.711,6.351-4.972,6.7,0,.057-1.958,3.082-2.007,3.151-.114.291-1.857,2.767-1.866,3.075-.107.713-2.454,3.691-2.534,4.158a13.809,13.809,0,0,0-.914,3.193c-.351,1.1.248,12.608.008,13.886a15.664,15.664,0,0,0,.969,3.5c1.053,2.122-.624,2.248,1.077,4.645a25.522,25.522,0,0,0,3.823,3.546,4.911,4.911,0,0,1,2.668,2.791,27.268,27.268,0,0,1,1.021,6.841c-.179.425.25,2.575.658,1.985,1.062-1.535,1.339-.3,1.6.08.66.95,1.37-2.326,1.471-2.619.153-.367.426-3.384.581-4.066,1.832-8.032,9.3-15.423,10.2-16.4.221-.524,2.726-6.066,2.9-6.279C212.7,293.833,216.2,283.168,217.309,280.651Z" transform="translate(-185.376 -250.018)" fill="#198e8c"/>
      </g>
      <path id="路径_1125" data-name="路径 1125" d="M301.886,311.318a18.5,18.5,0,1,0,18.5,18.5A18.5,18.5,0,0,0,301.886,311.318Zm0,23.829a5.326,5.326,0,1,1,5.326-5.326A5.326,5.326,0,0,1,301.886,335.147Z" transform="translate(-95.344 -46.571)" fill="#d4d5d5"/>
      <path id="路径_1126" data-name="路径 1126" d="M157.883,426.945V437.96s1.229,11.379,30,12.29S220.926,438.6,220.926,438.6v-5.371a19.034,19.034,0,0,1-13.838,5.395,21.481,21.481,0,0,1-13.2-4.12s-14.641.112-19.482-.432C169.931,433.565,162.844,432.316,157.883,426.945Z" transform="translate(0 -134.414)" fill="#302d2c"/>
      <g id="组_849" data-name="组 849" transform="translate(171.033 304.219)">
        <g id="组_848" data-name="组 848" transform="translate(0)">
          <g id="组_847" data-name="组 847">
            <path id="路径_1127" data-name="路径 1127" d="M212.964,481.866l1.364-4.812-1.719-.487.278-.98,4.6,1.3-.278.98-1.715-.486-1.364,4.812Z" transform="translate(-212.609 -475.587)" fill="#fff"/>
            <path id="路径_1128" data-name="路径 1128" d="M230.959,486.02l1.185.091a1.44,1.44,0,0,0,.276.936,1.309,1.309,0,0,0,.819.427,1.353,1.353,0,0,0,.915-.092.739.739,0,0,0,.393-.521.548.548,0,0,0-.061-.38,1,1,0,0,0-.386-.332q-.2-.11-.914-.427a3.3,3.3,0,0,1-1.249-.823,1.567,1.567,0,0,1-.337-1.289,1.551,1.551,0,0,1,.4-.8,1.632,1.632,0,0,1,.846-.471,3.009,3.009,0,0,1,1.2,0,2.544,2.544,0,0,1,1.6.783,1.755,1.755,0,0,1,.364,1.41l-1.206-.157a1.034,1.034,0,0,0-.215-.715,1.226,1.226,0,0,0-.724-.333,1.386,1.386,0,0,0-.854.072.439.439,0,0,0-.254.335.462.462,0,0,0,.115.391,3.194,3.194,0,0,0,1.031.589,5.9,5.9,0,0,1,1.218.652,1.7,1.7,0,0,1,.55.717,1.9,1.9,0,0,1-.379,1.892,1.723,1.723,0,0,1-.917.521,3.417,3.417,0,0,1-1.328-.009,2.609,2.609,0,0,1-1.636-.822A2.3,2.3,0,0,1,230.959,486.02Z" transform="translate(-226.546 -480.668)" fill="#fff"/>
            <path id="路径_1129" data-name="路径 1129" d="M255.217,488.413a3.829,3.829,0,0,1,.382-1.521,2.828,2.828,0,0,1,.616-.784,2.337,2.337,0,0,1,.814-.487,3.294,3.294,0,0,1,1.311-.147,2.827,2.827,0,0,1,2.067.972,3.689,3.689,0,0,1-.312,4.566,3.166,3.166,0,0,1-4.244-.292A3.107,3.107,0,0,1,255.217,488.413Zm1.253.046a2.253,2.253,0,0,0,.363,1.579,1.623,1.623,0,0,0,2.386.171,2.3,2.3,0,0,0,.574-1.534,2.264,2.264,0,0,0-.345-1.572,1.681,1.681,0,0,0-2.411-.162A2.276,2.276,0,0,0,256.47,488.459Z" transform="translate(-244.97 -483.09)" fill="#fff"/>
            <path id="路径_1130" data-name="路径 1130" d="M283.639,492.377l-.1-6.019,1.215-.02.038,2.369,2.381-.038-.038-2.369,1.215-.02.1,6.019-1.215.02-.043-2.632-2.381.038.043,2.632Z" transform="translate(-266.498 -483.711)" fill="#fff"/>
            <path id="路径_1131" data-name="路径 1131" d="M308.727,491.053l-.418-6.005,1.18-.082,2.737,3.84-.279-4.011,1.126-.078.418,6.005-1.216.085-2.694-3.748.272,3.916Z" transform="translate(-285.314 -482.522)" fill="#fff"/>
            <path id="路径_1132" data-name="路径 1132" d="M333.406,486.992l1.157-.271a1.445,1.445,0,0,0,.545.809,1.312,1.312,0,0,0,.91.16,1.355,1.355,0,0,0,.844-.364.74.74,0,0,0,.218-.615.548.548,0,0,0-.172-.344,1,1,0,0,0-.468-.2q-.222-.045-1-.131a3.3,3.3,0,0,1-1.438-.408,1.566,1.566,0,0,1-.71-1.127,1.544,1.544,0,0,1,.144-.887,1.631,1.631,0,0,1,.664-.7,3.007,3.007,0,0,1,1.146-.365,2.541,2.541,0,0,1,1.757.266,1.754,1.754,0,0,1,.772,1.235l-1.2.214a1.036,1.036,0,0,0-.421-.617,1.228,1.228,0,0,0-.79-.1,1.389,1.389,0,0,0-.793.326.438.438,0,0,0-.142.4.462.462,0,0,0,.228.338,3.2,3.2,0,0,0,1.161.251,5.9,5.9,0,0,1,1.358.255,1.691,1.691,0,0,1,.741.518,1.791,1.791,0,0,1,.365.918,1.772,1.772,0,0,1-.156,1,1.72,1.72,0,0,1-.717.773,3.411,3.411,0,0,1-1.269.392,2.609,2.609,0,0,1-1.808-.29A2.3,2.3,0,0,1,333.406,486.992Z" transform="translate(-304.283 -480.842)" fill="#fff"/>
          </g>
        </g>
      </g>
    </g>
  </g>
</svg>
