<svg id="Layer_1" enable-background="new 0 0 512 512" height="512" viewBox="0 0 512 512" width="512" xmlns="http://www.w3.org/2000/svg"><g><g clip-rule="evenodd" fill-rule="evenodd"><path d="m97.604 346.609h113.812c46.836 0 85 38.164 85 85v70.391h68.742v-98.002c16.275-16.275 101.499-63.799 101.499-204.999-.001-104.381-84.618-188.999-189-188.999s-188.999 62.618-188.999 188.999l-40.295 76.726c-6.025 11.473-3.502 24.031 11.775 26.396 11.699 1.811 23.399 3.622 35.098 5.433z" fill="#ffdcd5"/><path d="m211.416 346.609h-113.813l2.727 45h111.085c22 0 40 18 40 40v70.391h45v-70.391c0-46.836-38.163-85-84.999-85z" fill="#ff7d97"/><path d="m211.416 391.609h-111.085c1.331 21.96 18.355 46.492 40.327 45.389l33.501-1.682v66.684h77.257v-70.391c0-22-18-40-40-40z" fill="#ffdcd5"/></g><g><path d="m447.66 95.515c-2.877-4.715-9.03-6.206-13.745-3.33s-6.206 9.029-3.33 13.745c17.055 27.961 26.07 60.144 26.07 93.069 0 118.032-61.843 167.854-88.251 189.128-4.37 3.521-7.821 6.301-10.319 8.799-1.875 1.875-2.929 4.419-2.929 7.071v88.003h-48.742v-60.391c0-52.383-42.617-95-95-95h-104.4l-1.798-29.66c-.285-4.695-3.803-8.558-8.452-9.277l-35.099-5.433c-1.766-.273-4.875-1.021-5.852-2.961-.975-1.933-.425-5.428 1.4-8.903l40.294-76.726c.753-1.434 1.146-3.03 1.146-4.649 0-131.976 92.466-179 179-179 32.926 0 65.107 9.014 93.064 26.067 4.715 2.876 10.869 1.385 13.745-3.33s1.385-10.869-3.33-13.745c-31.091-18.967-66.874-28.992-103.475-28.992-56.469 0-105.022 17.202-140.412 49.746-37.818 34.777-58.045 85.485-58.577 146.767l-39.158 74.563c-4.95 9.425-5.516 19.341-1.554 27.204 3.71 7.363 11.045 12.238 20.653 13.725l27.134 4.2 4.606 76.01c1.6 26.404 21.929 54.822 48.877 54.821.64 0 1.286-.016 1.933-.049l23-1.155v56.168c0 5.523 4.477 10 10 10h190.999c5.523 0 10-4.477 10-10v-93.563c1.634-1.381 3.629-2.989 5.795-4.734 28.638-23.071 95.704-77.101 95.704-204.703 0-36.602-10.027-72.386-28.997-103.485zm-236.244 261.094c41.355 0 75 33.645 75 75v60.391h-25v-60.391c0-27.57-22.43-50-50-50h-101.673l-1.515-25zm-30.366 71.461c-1.985-1.888-4.659-2.883-7.393-2.741l-33.501 1.682c-12.374.633-23.312-11.639-27.773-25.402h99.033c16.542 0 30 13.458 30 30v60.391h-57.257v-56.684c0-2.739-1.124-5.358-3.109-7.246z"/><path d="m411.3 75.357c5.523 0 10-4.477 10-10s-4.477-10-10-10h-.007c-5.523 0-9.996 4.477-9.996 10s4.48 10 10.003 10z"/></g></g></svg>