<?xml version="1.0" encoding="utf-8"?>
<!-- Generator: Adobe Illustrator 16.0.2, SVG Export Plug-In . SVG Version: 6.00 Build 0)  -->
<!DOCTYPE svg PUBLIC "-//W3C//DTD SVG 1.1//EN" "http://www.w3.org/Graphics/SVG/1.1/DTD/svg11.dtd">
<svg version="1.1" id="Capa_1" xmlns="http://www.w3.org/2000/svg" xmlns:xlink="http://www.w3.org/1999/xlink" x="0px" y="0px"
	 width="512px" height="512px" viewBox="0 0 512 512" enable-background="new 0 0 512 512" xml:space="preserve">
<g>
	<path fill="#C30047" stroke="#000000" stroke-width="16" stroke-miterlimit="10" d="M294.685,337.623v62.837
		c0,17.434,14.134,31.566,31.568,31.566c17.434,0,31.567-14.133,31.567-31.566v-86.549L294.685,337.623z"/>
	<path fill="#FF6378" stroke="#000000" stroke-width="16" stroke-miterlimit="10" d="M198.331,464.781
		c0-20.831-37.718-75.435-37.718-75.435s-37.717,54.604-37.717,75.435s16.886,37.718,37.717,37.718S198.331,485.612,198.331,464.781
		z"/>
	<path fill="#FFCFBC" stroke="#000000" stroke-width="14" stroke-miterlimit="10" d="M288.261,188.312
		c0.055-0.301,0.082-0.456,0.082-0.456s-0.015-0.078-0.041-0.229"/>
	<path fill="#FFCFBC" stroke="#000000" stroke-width="14" stroke-miterlimit="10" d="M257.416,359.256
		c0.025-0.143,0.052-0.287,0.077-0.435"/>
	<path fill="#FFCFBC" stroke="#000000" stroke-width="16" stroke-miterlimit="10" d="M258.206,10.243
		c-0.088-0.488-0.133-0.741-0.149-0.741c-31.195,0.006-66.624,18.968-75.703,61.29c-13.6,48.579-35.73,126.173-41.365,142.437
		c-11.412,9.921-19.029,22.535-22.124,36.704c-3.043,13.942-1.46,29.018,4.458,42.45c5.921,13.435,15.999,24.813,28.374,32.039
		c11.173,6.522,23.854,9.603,37.098,9.064c17.069,19.455,42.336,30.847,69.244,30.855c0,0,0.026,0,0.035-0.001"/>
	<path fill="#FFB89B" stroke="#000000" stroke-width="14" stroke-miterlimit="10" d="M256.497,11.251c0,0.373,0,0.657,0,0.657
		s0,0.031,0,0.089"/>
	<path fill="#FFB89B" stroke="#000000" stroke-width="16" stroke-miterlimit="10" d="M257.216,364.34
		c26.612-0.205,51.558-11.644,68.41-31.051c27.895,0.454,52.366-15.146,63.853-41.386c12.187-27.838,5.676-58.271-16.493-78.559
		c-5.542-16.013-27.634-93.86-41.196-142.553c-9.051-42.336-44.276-61.29-75.292-61.29"/>
	<line fill="none" stroke="#000000" stroke-width="14" stroke-miterlimit="10" x1="243" y1="11.251" x2="263.563" y2="9.501"/>
</g>
<path fill="none" stroke="#000000" stroke-miterlimit="10" d="M-344-177.5c-0.064,2.205-0.219,4.419,0.5,6.5"/>
</svg>
