<?xml version="1.0" standalone="no"?>
<!DOCTYPE svg PUBLIC "-//W3C//DTD SVG 20010904//EN"
 "http://www.w3.org/TR/2001/REC-SVG-20010904/DTD/svg10.dtd">
<svg version="1.0" xmlns="http://www.w3.org/2000/svg"
 width="512.000000pt" height="512.000000pt" viewBox="0 0 512.000000 512.000000"
 preserveAspectRatio="xMidYMid meet">

<g transform="translate(0.000000,512.000000) scale(0.100000,-0.100000)"
fill="#000000" stroke="none">
<path d="M680 4465 c-26 -28 -30 -48 -50 -305 -9 -122 -26 -295 -34 -360 -4
-27 -23 -131 -36 -195 -61 -299 -72 -538 -33 -710 24 -106 108 -348 178 -510
7 -16 20 -52 30 -80 9 -27 20 -59 25 -70 5 -11 12 -36 16 -55 4 -19 9 -42 12
-50 2 -8 7 -37 12 -65 23 -128 48 -242 60 -270 4 -11 21 -54 36 -95 60 -159
180 -371 312 -550 167 -226 490 -486 787 -635 33 -17 62 -33 63 -37 2 -5 8 -8
14 -8 9 0 64 -22 98 -40 9 -4 31 -11 50 -15 19 -4 40 -11 45 -15 6 -4 24 -10
40 -13 17 -3 57 -11 90 -17 119 -23 437 -4 505 30 9 4 31 11 50 15 19 4 41 11
50 16 8 4 58 28 110 53 394 188 716 458 932 781 119 179 203 347 268 535 13
35 37 143 50 225 21 124 69 285 114 389 26 58 43 101 56 136 6 19 16 44 20 55
33 81 64 181 100 326 8 31 10 111 7 240 -5 174 -14 263 -47 424 -9 44 -22 119
-36 195 -7 44 -24 211 -34 350 -19 240 -24 268 -51 295 -39 39 -103 38 -144
-2 -27 -28 -27 -28 -22 -133 5 -91 15 -220 32 -405 6 -71 29 -211 55 -340 44
-213 62 -484 40 -585 -18 -83 -40 -163 -50 -185 -4 -11 -20 -54 -35 -95 -15
-41 -33 -89 -41 -107 -8 -17 -14 -34 -14 -37 0 -6 -35 -87 -50 -116 -4 -9 -11
-31 -15 -50 -4 -19 -10 -39 -14 -45 -15 -21 -54 -174 -71 -275 -6 -41 -16 -85
-21 -98 -5 -13 -9 -32 -9 -42 0 -18 -19 -85 -39 -135 -13 -34 -119 -247 -152
-305 -44 -78 -158 -237 -221 -306 -135 -150 -315 -293 -543 -431 -62 -37 -238
-123 -285 -138 -30 -10 -64 -21 -75 -25 -34 -14 -161 -30 -230 -30 -69 0 -196
16 -230 30 -11 4 -45 15 -75 25 -96 31 -251 113 -405 213 -355 234 -545 449
-741 843 -24 49 -44 94 -44 102 0 7 -4 17 -8 23 -14 15 -54 162 -71 259 -20
114 -30 160 -40 195 -13 47 -58 174 -75 214 -12 28 -35 86 -56 141 -20 52 -43
112 -51 130 -14 33 -56 176 -69 235 -14 65 -8 340 10 435 6 33 13 71 15 85 2
14 9 52 15 85 29 148 50 274 56 345 17 197 25 309 30 410 6 113 6 115 -19 143
-22 22 -35 27 -75 27 -39 0 -53 -5 -72 -25z"/>
<path d="M2220 4085 c-91 -21 -153 -53 -221 -117 -15 -14 -58 -44 -97 -68
-145 -89 -135 -167 26 -215 31 -9 66 -20 77 -25 80 -32 105 -44 140 -62 122
-65 136 -70 187 -70 46 0 55 4 79 30 30 34 42 69 58 180 13 88 14 163 2 194
-5 13 -14 41 -20 64 -25 94 -94 120 -231 89z"/>
<path d="M2793 4085 c-34 -15 -62 -50 -69 -87 -2 -13 -9 -49 -15 -80 -12 -54
-7 -130 15 -280 10 -69 63 -113 133 -111 32 1 92 20 103 32 12 13 179 90 230
105 30 10 64 21 75 26 11 5 30 12 42 15 12 3 34 20 48 36 44 53 17 103 -88
165 -31 18 -85 57 -119 85 -73 61 -108 77 -203 95 -86 17 -111 17 -152 -1z"/>
<path d="M2290 3427 c-30 -15 -40 -76 -17 -96 10 -8 13 -24 10 -49 -4 -27 -1
-42 11 -51 9 -7 16 -26 16 -41 0 -31 40 -70 69 -70 21 1 45 19 59 47 7 12 24
23 39 25 17 2 33 13 42 29 13 24 13 29 -6 55 -14 20 -19 39 -16 61 7 42 -16
65 -63 65 -19 0 -38 -3 -41 -6 -3 -3 -13 3 -22 14 -22 26 -52 32 -81 17z"/>
<path d="M2811 3414 c-16 -13 -32 -19 -40 -15 -17 11 -58 6 -76 -9 -21 -18
-28 -49 -14 -66 9 -11 8 -18 -6 -34 -36 -40 -7 -110 45 -110 10 0 20 -8 22
-17 3 -10 17 -25 32 -33 40 -21 80 2 84 48 2 19 13 43 24 54 15 15 19 28 15
54 -4 22 0 44 11 63 15 26 15 30 0 53 -24 36 -63 41 -97 12z"/>
<path d="M1060 3132 c0 -30 102 -116 186 -157 39 -19 77 -35 83 -35 6 0 19 -4
29 -10 36 -20 179 -40 286 -40 104 0 199 16 231 39 18 14 100 39 145 46 52 8
70 20 70 46 0 41 -28 44 -400 44 -380 1 -401 3 -519 57 -25 11 -60 22 -78 25
-28 5 -33 3 -33 -15z"/>
<path d="M4010 3127 c-25 -13 -76 -32 -115 -42 -63 -18 -103 -20 -415 -20
-287 0 -350 -3 -374 -15 -58 -30 -37 -64 46 -75 29 -4 75 -18 103 -31 98 -45
141 -54 258 -54 110 0 283 24 302 41 5 5 15 9 22 9 31 0 164 74 216 121 64 56
74 89 30 88 -16 0 -48 -10 -73 -22z"/>
<path d="M2275 2929 c-39 -14 -399 -195 -447 -225 -73 -46 -90 -135 -40 -204
28 -41 114 -102 195 -138 108 -50 230 -36 282 32 14 18 25 35 25 38 0 5 56
128 120 263 10 22 24 63 31 91 14 57 4 97 -32 129 -22 21 -93 28 -134 14z"/>
<path d="M2785 2927 c-44 -27 -50 -39 -49 -104 0 -34 6 -74 12 -88 7 -14 16
-35 22 -47 5 -13 41 -89 79 -170 82 -174 94 -184 221 -182 68 1 83 5 160 45
148 77 209 158 181 242 -17 50 -52 78 -196 152 -71 38 -157 82 -190 100 -115
60 -196 78 -240 52z"/>
<path d="M2475 1609 c-82 -7 -117 -14 -240 -49 -47 -14 -101 -36 -170 -70 -60
-30 -78 -66 -54 -108 28 -50 55 -50 186 0 152 58 171 64 274 79 148 21 323 -8
468 -77 103 -49 133 -53 165 -21 33 33 33 71 2 102 -26 25 -134 79 -183 91
-15 4 -32 10 -38 13 -20 13 -81 30 -145 40 -73 12 -133 12 -265 0z"/>
</g>
</svg>
