<?xml version="1.0" encoding="utf-8"?>
<!-- Generator: Adobe Illustrator 16.0.2, SVG Export Plug-In . SVG Version: 6.00 Build 0)  -->
<!DOCTYPE svg PUBLIC "-//W3C//DTD SVG 1.1//EN" "http://www.w3.org/Graphics/SVG/1.1/DTD/svg11.dtd">
<svg version="1.1" id="圖層_1" xmlns="http://www.w3.org/2000/svg" xmlns:xlink="http://www.w3.org/1999/xlink" x="0px" y="0px"
	 width="497.333px" height="424.664px" viewBox="0 0 497.333 424.664" enable-background="new 0 0 497.333 424.664"
	 xml:space="preserve">
<g>
	<path fill-rule="evenodd" clip-rule="evenodd" d="M254.429,335.029c-11.346,0.179-22.671-2.024-33.491-7.026
		c-5.854-2.707-11.659-5.819-17.126-9.242c-7.47-4.676-14.75-9.72-21.747-15.078c-9.666-7.401-18.067-16.355-25.085-26.275
		c-7.173-10.14-13.76-20.946-18.248-32.563c-2.742-7.098-5.055-14.634-6.587-22.093c-1.223-5.954-2.129-11.82-4.107-17.597
		c-1.987-5.803-4.138-11.576-6.29-17.321c-2.701-7.208-5.721-14.316-7.764-21.751c-2.451-8.919-3.376-18.298-2.93-27.528
		c0.258-5.347,0.928-10.73,1.857-16.001c2.872-16.302,4.507-32.754,6.41-49.182c0.546-4.71,0.347-9.435,0.746-14.146
		c0.495-5.837,2.975-9.869,9.337-9.305c7.402,0.656,4.953,10.457,4.533,15.217c-0.367,4.159-0.991,8.293-1.493,12.438
		c-1.121,9.258-2.045,18.533-3.267,27.78c-0.855,6.478-1.793,12.916-2.798,19.372c-2.07,13.29-2.633,26.92,1.418,39.902
		c4.542,14.554,11.399,28.29,15.511,42.988c2.353,8.41,3.538,17.132,6.593,25.343c2.185,5.873,4.508,11.695,7.014,17.438
		c0.927,2.122,1.838,4.262,2.917,6.313c5.096,9.686,11.691,18.379,19.625,25.915c7.475,7.1,15.751,13.403,24.029,19.53
		c13.371,9.896,28.963,19.028,45.867,20.666c4.596,0.446,9.605,0.302,14.141-0.629c5.256-1.077,10.773-2.433,15.727-4.528
		c6-2.539,11.547-6.331,17.178-9.577c18.17-10.478,34.316-25.153,46.671-42.105c3.456-4.743,6.531-9.807,9.114-15.08
		c5.773-11.795,8.404-24.39,11.523-37.038c1.397-5.668,3.083-11.258,5.014-16.768c3.872-11.054,8.835-21.749,12.011-33.042
		c6.57-23.347-0.024-45.838-3.445-69.084c-0.973-6.618-1.673-13.271-2.066-19.949c-0.189-3.246-0.313-6.496-0.396-9.747
		c-0.14-5.391-2.167-13.528,5.951-13.667c8.623-0.148,7.512,10.238,7.968,16.028c0.3,3.799,0.566,7.602,0.927,11.396
		c0.717,7.553,1.991,15.007,3.293,22.476c2.588,14.84,4.767,29.902,4.625,45.004c-0.154,16.539-7.318,32.778-12.83,48.104
		c-1.662,4.621-3.318,9.243-4.895,13.894c-4.237,12.498-5.747,25.543-10.681,37.852c-5.799,14.474-13.751,27.814-24.15,39.462
		c-15.04,16.846-34.516,32.182-55.274,41.224C278.34,332.018,266.374,334.843,254.429,335.029z"/>
	<path fill-rule="evenodd" clip-rule="evenodd" d="M222.097,199.131c-0.947,0.018-1.892-0.043-2.808-0.174
		c-1.57-0.223-3.179-0.633-4.666-1.185c-2.942-1.09-5.729-2.566-8.367-4.259c-4.094-2.63-9.071-6.509-9.185-11.866
		c-0.092-4.346,3.325-7.51,6.85-9.48c2.738-1.532,5.688-2.688,8.486-4.107c6.417-3.251,12.9-6.346,19.314-9.599
		c3.604-1.827,7.968-2.49,11.03,0.691c4.339,4.509,0.675,10.777-1.32,15.46c-2.451,5.757-4.812,11.669-7.676,17.235
		c-1.337,2.599-3.496,5.096-6.235,6.221C225.829,198.765,223.957,199.098,222.097,199.131z"/>
	<path fill-rule="evenodd" clip-rule="evenodd" d="M285.871,199.105c-0.067-0.005-0.136-0.011-0.203-0.017
		c-2.193-0.199-4.842-1.175-6.55-2.607c-2.805-2.354-4.578-5.79-6.178-9.015c-1.811-3.65-3.486-7.397-4.869-11.231
		c-0.76-2.104-1.405-4.244-1.924-6.419c-0.837-3.51-2.738-8.659,0.602-11.552c3.229-2.799,8.866-0.651,12.234,0.701
		c4.031,1.619,7.854,3.75,11.754,5.657c5.133,2.512,10.195,5.174,15.212,7.913c6.362,3.473,7.794,10.181,3.457,15.62
		c-2.852,3.575-7.173,6.188-11.339,7.902C294.323,197.595,290.004,199.408,285.871,199.105z"/>
	<path fill-rule="evenodd" clip-rule="evenodd" d="M245.09,108.72c-1.86,7.394-6.768,9.585-13.855,6.482
		c-7.345-3.215-14.804-6.162-22.152-9.369c-3.012-1.313-7.93-2.921-8.751-6.611c-0.519-2.33,1.127-5.327,3.152-6.075
		c14.06-5.201,27.781-16.539,34.496-15.804c2.214,0.242,5.127,2.239,6.069,4.22c1.487,3.128,1.391,7.482,1.55,10.859
		c0.189,3.974,0.271,7.968,0.022,11.942C245.528,105.813,245.446,107.304,245.09,108.72z"/>
	<path fill-rule="evenodd" clip-rule="evenodd" d="M275.153,77.232c2.954,0.157,5.777,1.266,8.367,2.736
		c3.535,2.009,6.753,4.522,10.328,6.468c3.091,1.682,6.502,2.702,9.561,4.427c2.686,1.513,4.964,4.101,3.697,7.346
		c-2.098,5.367-9.682,8.083-14.494,10.085c-3.023,1.258-6.067,2.336-8.955,3.9c-2.635,1.427-5.256,2.999-8.172,3.791
		c-1.591,0.432-3.235,0.612-4.878,0.4c-4.407-0.571-5.889-4.912-6.44-8.754c-0.672-4.662-0.615-9.463-0.777-14.164
		c-0.125-3.629-0.436-7.728,1.34-11.044c1.607-3.002,4.803-4.703,8.103-5.112C273.613,77.214,274.387,77.191,275.153,77.232z"/>
	<path fill-rule="evenodd" clip-rule="evenodd" stroke="#000000" d="M255.288,247.898c9.189,0.192,20.924,1.902,28.773,6.908
		c2.369,1.51,8.814,6.14,6.861,9.783c-3.477,6.488-21.476-5.204-30.658-5.46c-12.93-0.358-23.239,4.065-35.313,6.27
		c-2.637,0.48-9.949,1.786-10.178-2.548c-0.229-4.339,7.832-7.909,10.85-9.266C234.831,249.448,245.228,247.689,255.288,247.898z"/>
	<path fill-rule="evenodd" clip-rule="evenodd" d="M306.562,147.414c0.921-0.017,1.821-0.018,2.675-0.025
		c5.76-0.05,11.512,0.385,17.264,0.621c10.198,0.417,19.786-0.411,29.484-3.699c0.907-0.307,1.94-1.044,2.904-0.99
		c-0.846,1.246-2.331,2.305-3.445,3.321c-1.212,1.106-2.447,2.188-3.712,3.233c-2.462,2.032-5.045,3.925-7.789,5.562
		c-1.6,0.954-3.249,1.821-4.959,2.557c-9.397,4.044-20.363,3.711-30.14,1.312c-4.057-0.997-8.718-2.336-11.953-5.125
		c-1.895-1.632-2.298-3.667,0.13-4.969C299.775,147.736,303.302,147.474,306.562,147.414z"/>
	<path fill-rule="evenodd" clip-rule="evenodd" d="M190.196,160.345c-2.02,0.021-4.035,0.002-6.031-0.021
		c-6.301-0.074-12.554-1.443-18.392-3.79c-4.354-1.749-8.164-4.41-11.413-7.786c-1.782-1.852-3.395-3.855-5.003-5.857
		c6.669,2.627,13.307,4.496,20.483,5.067c9.392,0.749,18.822,0.038,28.225,0.007c3.905-0.014,7.865,0.025,11.728,0.655
		c1.943,0.317,4.741,0.752,6.059,2.421c2.796,3.548-5.74,6.484-7.74,7.083C202.337,159.858,196.242,160.281,190.196,160.345z"/>
	<path fill-rule="evenodd" clip-rule="evenodd" d="M247.809,129.059c0.117,0.398,0.239,0.796,0.398,1.179
		c1.5,3.635,2.652,6.735-0.731,9.688c-2.705,2.36-7.603,5.606-10.727,2.247c-3.232-3.476-4.576-9.842-4.546-14.437
		c0.014-2.038,0.288-4.731,2.781-5.035c2.283-0.278,4.915,1.005,7.108,1.508c1.45,0.333,3.146,0.751,4.251,1.816
		C247.207,126.859,247.486,127.962,247.809,129.059z"/>
	<path fill-rule="evenodd" clip-rule="evenodd" d="M260.495,130.232c0.104-0.798,0.242-1.585,0.572-2.32
		c0.982-2.196,3.414-2.496,5.436-3.233c2.502-0.912,5.436-2.571,8.18-1.61c2.441,0.856,2.674,3.505,2.084,5.714
		c-1.088,4.08-0.659,13.647-6.148,14.76c-2.256,0.457-4.629-0.955-6.325-2.283c-2.694-2.11-5.56-4.337-4.318-8.066
		C260.29,132.245,260.364,131.23,260.495,130.232z"/>
</g>
</svg>
