<svg height="512pt" viewBox="0 0 512 512.00005" width="512pt" xmlns="http://www.w3.org/2000/svg"><path d="m388.378906 114.203125c5.828125-5.84375 5.828125-15.363281-.015625-21.210937-2.914062-2.929688-6.753906-4.394532-10.589843-4.394532-3.855469 0-7.691407 1.464844-10.621094 4.394532-5.847656 5.847656-5.847656 15.367187 0 21.210937 5.859375 5.859375 15.363281 5.890625 21.226562 0zm0 0"/><path d="m8.296875 375.417969c55.152344 27.566406 101.460937 73.125 129.042969 128.292969 2.578125 5.167968 7.835937 8.289062 13.417968 8.289062 1.144532 0 2.300782-.132812 3.441407-.394531 6.769531-1.597657 11.558593-7.648438 11.558593-14.605469v-129.785156l27.433594-28.835938 42.433594 42.425782c5.859375 5.859374 15.351562 5.859374 21.210938 0 5.859374-5.859376 5.859374-15.351563 0-21.210938l-42.433594-42.425781 21.214844-21.214844 63.640624 63.640625c5.859376 5.859375 15.351563 5.859375 21.210938 0s5.859375-15.351562 0-21.210938l-63.640625-63.640624 21.214844-21.214844 84.863281 84.855468c5.855469 5.859376 15.351562 5.859376 21.210938 0 5.855468-5.859374 5.855468-15.351562 0-21.210937l-84.863282-84.855469 26.996094-26.996094c57.976562 56.808594 97.996094 85.851563 118.800781 85.851563 1.863281 0 3.5625-.222656 5.113281-.6875 10.765626-3.164063 23.863282-14.636719 39.449219-75.71875 7.222657-28.34375 38.363281-177.832031 11.921875-204.273437-26.613281-26.570313-176.542968 4.835937-204.988281 12.101562-60.527344 15.511719-71.894531 28.578125-75.015625 39.300781-5.5 18.859375 22.894531 60.117188 83.535156 122.1875l-27.023437 27.023438-84.855469-84.84375c-5.859375-5.859375-15.351562-5.859375-21.210938 0-5.859374 5.855469-5.859374 15.351562 0 21.210937l84.855469 84.84375-21.214843 21.214844-63.640626-63.636719c-5.859374-5.859375-15.351562-5.859375-21.210937 0s-5.859375 15.351563 0 21.210938l63.640625 63.636719-21.214844 21.21875-42.429687-42.417969c-5.855469-5.859375-15.351563-5.859375-21.210938 0-5.855469 5.855469-5.855469 15.351562 0 21.210937l42.429688 42.417969-28.429688 29.828125h-128.542969c-6.960937 0-13.007812 4.789062-14.605468 11.558594-1.597656 6.765625 1.667968 13.753906 7.894531 16.859375zm337.644531-303.636719c17.53125-17.53125 46.082032-17.5625 63.644532 0 17.523437 17.550781 17.523437 46.085938.015624 63.632812-8.789062 8.773438-20.316406 13.15625-31.84375 13.15625-11.53125 0-23.042968-4.382812-31.816406-13.15625-17.550781-17.546874-17.550781-46.082031 0-63.632812zm0 0"/></svg>