<svg id="Capa_1" enable-background="new 0 0 496.69 496.69" height="512" viewBox="0 0 496.69 496.69" width="512" xmlns="http://www.w3.org/2000/svg"><g><path d="m287.303 330.579v63.307c0 17.565 14.239 31.804 31.804 31.804s31.804-14.239 31.804-31.804v-87.196z" fill="#c30047"/><path d="m190.227 458.69c0-20.987-38-76-38-76s-38 55.013-38 76 17.013 38 38 38 38-17.013 38-38z" fill="#ff6378"/><path d="m248.813 0c-31.27.007-66.784 19.11-75.884 61.75-13.632 48.942-35.816 127.118-41.464 143.504-11.439 9.996-19.075 22.704-22.177 36.979-3.051 14.047-1.464 29.235 4.469 42.768 5.936 13.535 16.037 24.999 28.442 32.279 11.2 6.572 23.911 9.675 37.186 9.132 17.11 19.601 42.438 31.079 69.409 31.087h.028.008l32.083-177.809-32.084-179.69c-.004 0-.012 0-.016 0z" fill="#ffcfbc"/><path d="m366.189 205.37c-5.583-16.133-27.84-94.563-41.504-143.621-9.118-42.653-44.609-61.749-75.856-61.749v357.499c27.082-.003 52.515-11.557 69.647-31.286 28.103.457 52.758-15.26 64.331-41.696 12.277-28.046 5.717-58.707-16.618-79.147z" fill="#ffb89b"/></g></svg>