<svg id="Capa_1" enable-background="new 0 0 512 512" height="512" viewBox="0 0 512 512" width="512" xmlns="http://www.w3.org/2000/svg"><g><g><path d="m111.101 57.203c40.64-29.672 90.724-47.183 144.899-47.183 5.651 0 11.262.19 16.813.571 128.01 8.636 229.167 115.205 229.167 245.409 0 135.855-110.125 245.98-245.98 245.98-34.207 0-66.78-6.984-96.378-19.598-87.952-37.493-149.602-124.734-149.602-226.382 0-49.511 14.626-95.605 39.794-134.196" fill="#66e0f7"/><path d="m96.729 443.446s-140.735-105.614-72.153-271.004c62.988-151.902 192.588-159.366 192.588-159.366 2.535 14.318 3.827 29.658 3.827 46.25l55.007 84.866c12.685 23.035-3.968 51.23-30.269 51.23h-29.668v43.674c0 6.142-3.727 11.663-9.428 13.947l-29.618 11.893c-12.464 5.01-12.605 22.594-.24 27.804l30.089 12.675c5.581 2.345 9.198 7.805 9.198 13.847v21.663c0 31.859-25.827 57.687-57.687 57.687h-21.352c-22.135 0-40.119 17.867-40.263 40.001z" fill="#ffdfe5"/></g><g><ellipse cx="77.545" cy="86.823" rx="10" ry="10" transform="matrix(.205 -.979 .979 .205 -23.329 144.926)"/><path d="m442.706 80.85c-44.477-47.392-104.574-75.895-169.206-80.255-5.743-.394-11.631-.595-17.5-.595-54.654 0-106.802 16.982-150.807 49.112-4.469 3.263-5.447 9.531-2.183 14 3.263 4.472 9.531 5.448 14 2.184 27.656-20.192 58.807-33.886 91.803-40.557 1.431 10.947 2.159 22.534 2.159 34.587 0 1.934.56 3.827 1.612 5.45l54.796 84.539c4.069 7.622 3.881 16.582-.523 24.036-4.459 7.546-12.357 12.051-21.126 12.051h-29.668c-5.534 0-10.02 4.486-10.02 10.02v46.551c0 2.059-1.231 3.884-3.143 4.65l-29.621 11.894c-9.46 3.802-15.629 12.846-15.713 23.041-.085 10.193 5.928 19.336 15.32 23.294l30.098 12.679c1.858.781 3.059 2.59 3.059 4.609v18.641c0 28.714-23.361 52.074-52.074 52.074h-23.881c-19.264 0-35.393 13.664-39.215 31.807-44.506-43.565-70.834-103.887-70.834-168.662 0-45.925 13.198-90.436 38.167-128.723 3.023-4.635 1.716-10.843-2.919-13.866s-10.842-1.716-13.865 2.919c-27.099 41.552-41.422 89.848-41.422 139.67 0 102.802 61.113 195.28 155.693 235.599 31.761 13.537 65.509 20.401 100.307 20.401 68.382 0 132.67-26.628 181.021-74.979s74.979-112.639 74.979-181.021c0-65.333-24.609-127.535-69.294-175.15zm-19.855 342.001c-44.567 44.566-103.822 69.11-166.851 69.11-32.083 0-63.187-6.324-92.449-18.796-19.469-8.299-37.394-19.003-53.502-31.668v-8.564c0-11.05 8.99-20.039 20.039-20.039h23.881c39.764 0 72.113-32.35 72.113-72.113v-18.641c0-10.109-6.02-19.17-15.328-23.08l-30.088-12.674c-2.789-1.176-3.071-3.651-3.062-4.66.008-1.01.332-3.482 3.145-4.613l29.611-11.89c9.55-3.827 15.721-12.952 15.721-23.248v-36.531h19.648c15.93 0 30.277-8.185 38.379-21.895 8.103-13.713 8.352-30.232.667-44.188-.115-.209-.239-.415-.369-.616l-53.41-82.4c-.113-12.047-.915-23.678-2.383-34.736 9.03-1.037 18.169-1.567 27.386-1.567 5.413 0 10.839.184 16.139.549 59.571 4.019 114.958 30.291 155.955 73.976 41.185 43.885 63.867 101.217 63.867 161.436.001 63.026-24.543 122.282-69.109 166.848z"/><path d="m286.297 252.341c-4.516 3.198-5.584 9.451-2.387 13.968 4.393 6.204 9.631 16.238 9.631 28.804 0 6.934-1.671 17.561-9.632 28.806-2.896 4.091-2.258 9.885 1.474 13.237 4.402 3.955 11.468 3.163 14.882-1.659 11.005-15.546 13.315-30.542 13.315-40.385 0-17.837-7.242-31.806-13.316-40.386-3.196-4.515-9.45-5.582-13.967-2.385z"/><path d="m334.261 230.918c-4.517 3.198-5.586 9.451-2.389 13.967 10.949 15.468 16.737 32.837 16.737 50.228 0 17.392-5.788 34.761-16.737 50.229-2.896 4.091-2.258 9.884 1.475 13.236 4.403 3.954 11.467 3.164 14.882-1.659 13.359-18.871 20.42-40.244 20.42-61.806s-7.061-42.934-20.42-61.805c-3.199-4.517-9.452-5.586-13.968-2.39z"/><path d="m383.905 212.719c-4.516 3.198-5.585 9.451-2.388 13.968 14.898 21.044 22.773 44.705 22.773 68.426s-7.875 47.382-22.773 68.426c-2.896 4.091-2.259 9.885 1.474 13.237 4.402 3.954 11.468 3.164 14.882-1.658 17.307-24.448 26.456-52.114 26.456-80.005 0-27.89-9.149-55.556-26.456-80.005-3.198-4.516-9.45-5.587-13.968-2.389z"/></g></g></svg>