<svg id="Layer_1" enable-background="new 0 0 512.291 512.291" height="512" viewBox="0 0 512.291 512.291" width="512" xmlns="http://www.w3.org/2000/svg"><g><g><g><g><g><path d="m422.056 468.474c19.891 0 33.578-20.194 25.973-38.573-6.882-16.631-17.214-28.755-4.601-57.023 22.288-49.951 10.291-76.443-9.43-108.515-33.432-54.371-8.989-82.141-21.99-129.241-46.81-169.598-313.825-169.609-360.639 0-13 47.101 11.443 74.87-21.99 129.241-19.721 32.072-31.718 58.564-9.43 108.515 12.613 28.269 2.281 40.393-4.601 57.023-7.605 18.379 6.082 38.573 25.973 38.573z" fill="#735351"/><path d="m443.428 372.878c22.288-49.951 10.291-76.443-9.43-108.515-33.432-54.371-8.989-82.14-21.99-129.241-24.898-90.21-112.097-132.44-195.322-126.685 73.244 5.064 143.409 47.294 165.322 126.685 13 47.101-11.443 74.87 21.99 129.241 19.721 32.072 31.718 58.564 9.43 108.515-12.613 28.269-2.281 40.393 4.601 57.023 7.605 18.379-6.082 38.573-25.973 38.573h30c19.891 0 33.578-20.194 25.973-38.573-6.882-16.631-17.215-28.755-4.601-57.023z" fill="#664442"/><g><g><ellipse cx="367.916" cy="271.026" fill="#ffd8ba" rx="30.381" ry="30.523"/></g><g><ellipse cx="95.463" cy="271.026" fill="#ffd8ba" rx="30.381" ry="30.523"/></g></g><g><path d="m91.454 504.919v-22.559c0-77.332 62.69-140.022 140.022-140.022h.426c77.332 0 140.022 62.69 140.022 140.022v22.559z" fill="#ff80b3"/><path d="m231.902 342.338h-.426c-4.994 0-9.927.262-14.787.772 70.381 7.387 125.235 66.912 125.235 139.25v22.559h30v-22.559c0-77.332-62.69-140.022-140.022-140.022z" fill="#ff6ba7"/><path d="m231.743 449.13h-.108c-19.618 0-35.521-15.904-35.521-35.521v-57.491h71.151v57.491c0 19.618-15.904 35.521-35.522 35.521z" fill="#ffd8ba"/></g><g><path d="m159.221 105.415c-4.497 45.751-27.728 50.849-42.074 55.825-6.878 2.386-11.472 8.911-11.472 16.221v86.505c0 69.919 56.419 126.6 126.014 126.6 69.596 0 126.014-56.681 126.014-126.6v-80.477c0-9.743-8.053-17.454-17.747-17.169-15.173.445-40.366.56-59.885-18.765-24.882-24.636-39.273-15.864-65.241-16.457-32.465-.741-45.9-15.867-51.345-26.497-1.038-2.027-4.042-1.453-4.264.814z" fill="#ffd8ba"/></g></g></g><circle cx="231.689" cy="328.183" fill="#fff" r="19.71"/></g><g fill="#ffdc17"><path d="m438.009 121.485h-61.564c-5.263 0-10.092-2.918-12.539-7.578s-2.108-10.292.88-14.625l43.764-63.457h-30.55c-7.822 0-14.163-6.341-14.163-14.163s6.342-14.162 14.163-14.162h57.521c5.263 0 10.092 2.918 12.539 7.578s2.108 10.292-.88 14.625l-43.763 63.457h34.592c7.822 0 14.163 6.341 14.163 14.163s-6.341 14.162-14.163 14.162z"/><path d="m490.774 223.583h-37.362c-5.263 0-10.092-2.918-12.539-7.578s-2.108-10.292.88-14.625l20.54-29.784h-7.938c-7.822 0-14.163-6.341-14.163-14.163s6.341-14.163 14.163-14.163h34.91c5.263 0 10.092 2.918 12.539 7.578s2.108 10.292-.88 14.625l-20.54 29.784h10.391c7.822 0 14.163 6.341 14.163 14.163s-6.342 14.163-14.164 14.163z"/></g></g><g><path d="m440.387 260.435c-19.075-31.022-18.127-52.663-17.124-75.574.831-18.983.272-37.559-5.218-55.875h19.964c27.874 0 28.066-43.325 0-43.325h-20.309l35.655-51.7c9.724-14.104-.703-33.961-17.834-33.961h-57.521c-11.945 0-21.663 9.718-21.663 21.663 0 11.944 9.718 21.662 21.663 21.662h16.266l-13.291 19.272c-11.272-12.209-25.109-23.433-41.257-33.449-7.975-4.949-16.245 7.574-7.906 12.746 16.114 9.997 29.683 21.212 40.411 33.394l-13.612 19.737c-9.724 14.103.703 33.96 17.834 33.96h25.882c5.981 18.272 6.784 36.206 5.951 55.219-9.983 91.581 67.795 97.397 28.302 185.617-12.063 27.034-4.954 42.317 1.319 55.802 4.066 8.742 7.221 17.309 1.29 26.184-3.895 5.826-10.139 9.167-17.133 9.167h-44.172c-5.581-38.44-26.076-73.121-57.474-96.652 17.019-15.152 30.17-34.594 37.756-56.62 23.775 6.516 47.884-12.098 47.884-36.675 0-21.652-18.96-39.472-40.595-37.926v-49.611c0-13.674-11.802-25.037-25.466-24.666-12.769.377-36.539 1.073-54.39-16.599-21.583-21.369-37.68-20.297-54.727-19.163-4.919.329-10.003.667-15.62.538-27.896-.637-39.781-12.543-44.841-22.419-4.413-8.618-17.343-5.829-18.403 3.501-3.765 38.291-20.773 43.997-34.441 48.582-10.902 3.657-19.141 12.036-19.141 24.197v55.639c-21.636-1.538-40.594 16.264-40.594 37.927 0 24.576 24.108 43.191 47.884 36.675 7.57 21.978 20.68 41.382 37.644 56.52-10.344 7.743-19.614 16.795-27.643 27.002-5.859 7.447 5.885 16.783 11.789 9.273 8.037-10.217 17.458-19.146 28.054-26.596 10.161 7.144 21.354 12.904 33.305 17.006v22.703c-.004 23.759 19.371 43.084 43.13 43.021 23.722 0 43.021-19.3 43.021-43.021v-22.702c11.902-4.085 23.052-9.815 33.18-16.918 35.302 24.868 56.228 65.009 56.228 108.372v22.559c0 9.386 15 9.813 15 0 0-9.635.275-19.317-.136-28.945h42.768c11.91 0 22.977-5.918 29.604-15.831 8.902-13.318 6.146-27.29-.161-40.847-5.866-12.609-10.499-22.569-1.221-43.362 23.812-53.37 10.277-82.702-9.891-115.501zm-69.842-150.015c-1.154-2.198-.995-4.835.414-6.88l43.764-63.457c3.372-4.886-.239-11.758-6.174-11.758h-30.549c-8.613 0-8.613-13.325 0-13.325h57.521c5.276 0 8.478 6.102 5.485 10.445l-43.764 63.457c-3.372 4.886.239 11.758 6.174 11.758h34.593c8.612 0 8.612 13.325 0 13.325h-61.564c-2.484 0-4.744-1.366-5.9-3.565zm20.505 160.606c0 14.597-14.741 26.017-28.805 22.24 3.327-14.934 3.21-45.103 3.21-45.103 15.065 0 25.595 10.168 25.595 22.863zm-295.335 23.023c-12.617 0-22.882-10.328-22.882-23.022 0-13.534 12.122-24.461 25.594-22.864 0 15.164-.113 30.185 3.211 45.104-1.923.516-3.916.782-5.923.782zm17.712-30.083v-86.505c0-5.667 4.148-8.376 8.911-9.977 13.431-4.505 35.007-11.742 42.615-48.139 14.651 15.819 36.713 18.947 49.958 19.25 6.282.143 11.955-.233 16.959-.567 50.276-6.241 35.184 38.959 108.56 35.789 5.41-.19 10.025 4.261 10.025 9.672v80.478c-6.509 157.996-230.534 157.965-237.028-.001zm146.59 149.642c0 15.451-12.57 28.021-28.021 28.021h-.108c-15.451 0-28.021-12.57-28.021-28.021v-18.525c17.995 3.961 38.156 3.962 56.151 0v18.525z"/><path d="m104.902 422.469c-3.698-1.516-8.438.212-9.994 4.012-4.557 11.126-7.705 22.666-9.42 34.493h-44.165c-6.994 0-13.238-3.341-17.133-9.167-5.932-8.875-2.775-17.44 1.29-26.184 6.272-13.483 13.383-28.767 1.319-55.801-39.498-88.183 38.268-94.009 28.3-185.619-.668-15.272-1.299-29.697 3.499-47.086 25.331-99.906 144.723-143.887 238.01-111.26 8.897 2.99 14.073-11.102 4.77-14.221-55.796-18.712-119.264-13.836-169.786 13.044-44.106 23.466-74.346 60.966-87.452 108.447-5.43 19.67-4.715 35.97-4.024 51.732 1.003 22.911 1.951 44.553-17.124 75.575-20.168 32.8-33.703 62.132-9.891 115.499 9.278 20.793 4.645 30.753-1.222 43.363-6.308 13.555-9.06 27.53-.16 40.846 6.627 9.913 17.693 15.831 29.604 15.831h42.767c-.408 9.629-.135 19.31-.135 28.945 0 9.829 15.252 9.829 15.252 0 0-11.986-.196-23.944.66-35.905 1.26-12.65 4.318-24.969 9.14-36.765 1.567-3.833-.271-8.212-4.105-9.779z"/><path d="m172.577 195.391c4.142-.099 7.419-3.535 7.32-7.676-.093-4.145-3.555-7.424-7.676-7.32-18.772.446-33.222 11.731-33.827 12.212-3.246 2.573-3.792 7.29-1.22 10.536 2.457 3.1 7.363 3.734 10.536 1.22.11-.088 11.282-8.65 24.867-8.972z"/><path d="m290.802 195.391c13.568.322 24.669 8.819 24.885 8.986 3.173 2.497 8.066 1.859 10.518-1.234 2.572-3.246 2.026-7.964-1.22-10.536-.605-.48-15.056-11.766-33.827-12.212-4.121-.104-7.583 3.177-7.676 7.32-.099 4.14 3.179 7.577 7.32 7.676z"/><path d="m204.479 328.184c0 15.004 12.206 27.21 27.21 27.21 36.099-1.495 36.089-52.931 0-54.42-15.004 0-27.21 12.206-27.21 27.21zm27.21-12.21c6.733 0 12.211 5.478 12.211 12.21-.671 16.198-23.752 16.194-24.421 0 0-6.733 5.478-12.21 12.21-12.21z"/><path d="m282.556 275.689c19.725 0 35.771-16.048 35.771-35.772v-14.037c-.344-9.931-14.66-9.923-15 0v14.037c-1.144 27.565-40.41 27.542-41.544 0v-14.037c-.344-9.931-14.66-9.923-15 0v14.037c.001 19.725 16.049 35.772 35.773 35.772z"/><path d="m180.823 275.689c19.725 0 35.771-16.048 35.771-35.772v-14.037c-.344-9.931-14.66-9.923-15 0v14.037c-1.144 27.564-40.409 27.543-41.543 0v-14.037c-.344-9.931-14.66-9.923-15 0v14.037c0 19.725 16.047 35.772 35.772 35.772z"/><path d="m494.452 188.07 12.646-18.339c9.725-14.102-.702-33.96-17.833-33.96h-34.909c-24.369 0-29.49 35.946-5.802 42.536l-12.975 18.814c-9.726 14.103.702 33.961 17.833 33.961h37.361c25.546.001 29.155-38.638 3.679-43.012zm-3.678 28.013h-37.361c-5.275 0-8.48-6.102-5.485-10.445l20.54-29.783c3.372-4.886-.239-11.758-6.174-11.758h-7.938c-8.613 0-8.613-13.325 0-13.325h34.909c5.276 0 8.478 6.101 5.485 10.444l-20.54 29.784c-3.372 4.886.239 11.758 6.174 11.758h10.39c8.613 0 8.613 13.325 0 13.325z"/></g></g></svg>